<svg xmlns="http://www.w3.org/2000/svg" xmlns:xlink="http://www.w3.org/1999/xlink" xmlns:xodm="http://www.corel.com/coreldraw/odm/2003" xml:space="preserve" width="67.8334mm" height="52.965mm" style="shape-rendering:geometricPrecision; text-rendering:geometricPrecision; image-rendering:optimizeQuality; fill-rule:evenodd; clip-rule:evenodd" viewBox="0 0 149.7 116.89">
 <defs>
  <style type="text/css">
   <![CDATA[
    .fil2 {fill:none}
    .fil1 {fill:black}
    .fil44 {fill:#0548A3}
    .fil56 {fill:#0F2432}
    .fil15 {fill:#11192B}
    .fil61 {fill:#152539}
    .fil54 {fill:#1B2748}
    .fil64 {fill:#1C2957}
    .fil68 {fill:#2097DF}
    .fil63 {fill:#242A5B}
    .fil35 {fill:#242D62}
    .fil8 {fill:#242E61}
    .fil26 {fill:#243264}
    .fil27 {fill:#252956}
    .fil9 {fill:#25356B}
    .fil33 {fill:#253973}
    .fil53 {fill:#264383}
    .fil47 {fill:#27150E}
    .fil24 {fill:#28427B}
    .fil62 {fill:#28478B}
    .fil17 {fill:#292A33}
    .fil59 {fill:#294A94}
    .fil55 {fill:#2A4484}
    .fil43 {fill:#2D51FF}
    .fil41 {fill:#333333}
    .fil70 {fill:#3593D1}
    .fil71 {fill:#4C4955}
    .fil5 {fill:#5580FF}
    .fil73 {fill:#576572}
    .fil72 {fill:#58A8AA}
    .fil42 {fill:#6A4224}
    .fil12 {fill:#6C4529}
    .fil65 {fill:#74524B}
    .fil4 {fill:#7B8CBD}
    .fil20 {fill:#94B7C8}
    .fil60 {fill:#94C7CD}
    .fil40 {fill:#9C9FA4}
    .fil69 {fill:#AACDD5}
    .fil32 {fill:#C7CCD5}
    .fil14 {fill:#C8CACB}
    .fil75 {fill:#C8DEEC}
    .fil67 {fill:#CAD3D7}
    .fil39 {fill:#CCCCCC}
    .fil48 {fill:#CCD4DB}
    .fil29 {fill:#D4DADD}
    .fil50 {fill:#D4DCE3}
    .fil57 {fill:#D6DBE8}
    .fil7 {fill:#D9D8D6}
    .fil45 {fill:#DCE1E5}
    .fil30 {fill:#DCE3EB}
    .fil10 {fill:#E0A75C}
    .fil49 {fill:#E1DDDB}
    .fil46 {fill:#E4ECF4}
    .fil11 {fill:#E8E8E6}
    .fil13 {fill:#ECF2F5}
    .fil18 {fill:#EDF4FA}
    .fil66 {fill:#EFA19F}
    .fil36 {fill:#EFDE6D}
    .fil19 {fill:#F0F4FB}
    .fil31 {fill:#F1F5F9}
    .fil51 {fill:#F1F7FB}
    .fil16 {fill:#F4F4F4}
    .fil25 {fill:#F4F9FC}
    .fil28 {fill:#F6F5EC}
    .fil37 {fill:#F7F7F7}
    .fil34 {fill:#F8F8F8}
    .fil6 {fill:#F9D64C}
    .fil21 {fill:#F9FAFA}
    .fil58 {fill:#FABA9F}
    .fil52 {fill:#FAD54A}
    .fil23 {fill:#FBFBFB}
    .fil38 {fill:#FDE452}
    .fil22 {fill:#FEFDFE}
    .fil74 {fill:url(#id3)}
    .fil3 {fill:url(#id4)}
    .fil0 {fill:url(#id5)}
   ]]>
  </style>
    <clipPath id="id0">
     <path d="M9.29 116.89l140.41 0 0 -83.94 -140.41 0 0 83.94z"></path>
    </clipPath>
      <mask id="id1">
  <linearGradient id="id2" gradientUnits="userSpaceOnUse" x1="92.59" y1="123.31" x2="4.85" y2="33.37">
   <stop offset="0" style="stop-opacity:0; stop-color:white"></stop>
   <stop offset="0.878431" style="stop-opacity:0.247059; stop-color:white"></stop>
   <stop offset="1" style="stop-opacity:0.490196; stop-color:white"></stop>
  </linearGradient>
       <rect style="fill:url(#id2)" x="9.43" y="33.08" width="140.14" height="83.67"></rect>
      </mask>
  <linearGradient id="id3" gradientUnits="userSpaceOnUse" x1="27.75" y1="59.21" x2="21.66" y2="59.21">
   <stop offset="0" style="stop-opacity:1; stop-color:#FA7373"></stop>
   <stop offset="1" style="stop-opacity:1; stop-color:#A13030"></stop>
  </linearGradient>
  <linearGradient id="id4" gradientUnits="userSpaceOnUse" x1="0.09" y1="60.18" x2="139.43" y2="60.18">
   <stop offset="0" style="stop-opacity:1; stop-color:white"></stop>
   <stop offset="1" style="stop-opacity:1; stop-color:#E4EBFF"></stop>
  </linearGradient>
  <linearGradient id="id5" gradientUnits="userSpaceOnUse" x1="92.63" y1="123.56" x2="4.61" y2="33.15">
   <stop offset="0" style="stop-opacity:0; stop-color:white"></stop>
   <stop offset="0.878431" style="stop-opacity:0.247059; stop-color:white"></stop>
   <stop offset="1" style="stop-opacity:0.490196; stop-color:white"></stop>
  </linearGradient>
 </defs>
 <g id="Camada_x0020_1">
  <metadata id="CorelCorpID_0Corel-Layer"></metadata>
  <g id="_1901186901792">
   <polygon class="fil0" points="9.29,116.89 149.7,116.89 149.7,32.95 9.29,32.95 "></polygon>
   <g style="clip-path:url(#id0)">
    <g>
     <path id="1" class="fil1" style="mask:url(#id1)" d="M12.17 76.74l67.19 39.93 70.13 -42.49 -69.73 -40.01c-2.18,-1.09 -5.25,-1.52 -7.57,-0.11l-62.15 37.3c-1.59,3.19 0.87,4.67 2.14,5.38l-0 -0z"></path>
    </g>
   </g>
   <polygon class="fil2" points="9.29,116.89 149.7,116.89 149.7,32.95 9.29,32.95 "></polygon>
   <path class="fil3" d="M0.1 59.51l69.26 41.2 70.13 -42.49 -66.19 -37.98c-2.18,-1.09 -5.25,-1.52 -7.57,-0.11l-65.63 39.38 -0 -0z"></path>
   <path class="fil4" d="M6.42 67.06c3.88,1.46 14.61,8.41 18.88,10.93 6.42,3.79 -1.03,-0.51 5.49,3.36 7.29,4.33 32.42,20.73 38.93,20.72 2.37,-0.03 14.64,-7.83 17.79,-9.67 5.8,-3.39 11.58,-6.8 17.38,-10.17 5.8,-3.36 11.61,-6.76 17.38,-10.17 3.02,-1.79 15.67,-8.52 17.07,-10.57l0.15 -3.27c-8.71,5.07 -17.43,10.37 -26.15,15.49 -0.51,0.62 -4.74,2.95 -5.7,3.29 -1.37,1.27 -8.69,5.12 -10.85,6.42l-21.99 12.89c-5.9,3.41 -6.84,3.2 -12.64,-0.14l-31.04 -18.23c-0.44,-0.31 -1.23,-0.72 -1.81,-1 -1.4,-1.17 -5.42,-3.19 -7.22,-4.25 -2.45,-1.44 -4.91,-2.91 -7.39,-4.31 -3.7,-2.08 -11.76,-6.34 -14.59,-8.88 -0.15,2.81 -0.45,3.57 2,5 1.43,0.83 2.93,1.74 4.31,2.54l0 0z"></path>
  </g>
  <g id="_1901186905920">
   <path class="fil5" d="M63.85 18.69l0.21 1.16c0.31,0.38 0.48,0.93 0.89,1.19 0.62,0.4 1.15,0.04 1.72,0.08 1.03,0.07 1.92,1.07 2.32,-1.54l0.04 -1.39c-0.04,-2.55 -0.14,-6.21 -0.89,-8.59 -0.58,-1.84 -0.56,-6.81 -1.45,-7.9 -0.16,-0.79 -0.26,-1.54 -1.06,-1.7 -0.49,0.33 -0.69,0.99 -0.89,1.59 -1.21,2.36 -1.78,14.48 -0.91,17.09l0 0z"></path>
   <path class="fil6" d="M68.99 19.58c0.64,0.22 0.92,0.48 1.19,1.11 -1.03,3.47 -9.55,0.87 -6.13,-0.84l-0.21 -1.16c-3.5,0.23 0.09,5.12 -0.3,6.7 1.57,1.04 2.28,1.99 4.69,1.2 2.51,-0.83 1.11,-2.97 2.48,-3.97 0.13,-1.74 1.41,-3.71 -1.69,-4.43l-0.04 1.39 0 0z"></path>
   <path class="fil7" d="M63.55 25.39c0.68,2.3 5.15,2.69 7.24,2.78l4.59 -2.78 0.09 -0.04c0.67,-0.29 -0.37,-1.36 -0.71,-1.7 -0.38,-0.27 -3.48,-0.82 -4.1,-0.63l0.06 -0.41c-1.37,1 0.03,3.14 -2.48,3.97 -2.41,0.8 -3.12,-0.15 -4.69,-1.2l-0 0z"></path>
   <path class="fil8" d="M64.06 19.85c-3.42,1.71 5.1,4.31 6.13,0.84 -0.27,-0.63 -0.55,-0.89 -1.19,-1.11 -0.4,2.61 -1.29,1.61 -2.32,1.54 -0.58,-0.04 -1.11,0.32 -1.72,-0.08 -0.41,-0.26 -0.58,-0.81 -0.89,-1.19l-0 -0z"></path>
  </g>
  <path class="fil9" d="M55.76 26.18c1.29,0.1 2.55,-0.01 3.66,-0.47 0.3,0.14 0.45,-0.14 0.42,1.25 -0.01,0.51 -0.04,1.04 -0.04,1.55 -0.02,0.99 -0.04,1.98 -0.1,2.98 -0.03,0.97 -0.18,1.63 0.4,2.34l0.17 2.07 0.36 2.43c-0.06,0.41 -0.08,0.55 -0.03,1.01 0,0.01 0.09,0.45 0.09,0.46 0.12,0.4 -0.03,0.11 0.17,0.36l0.23 1.87c0.09,0.65 0.11,1.49 0.45,1.88l-0.07 1.08c0.43,-0.35 0.48,-0.41 1.09,-0.33 -0.62,0.23 -0.62,0.63 -0.52,1.49l0.52 0.05c-0.16,-0.6 0.05,-0.79 0.47,-1.17l0.01 -0.91 -0.43 -4.11 0.02 -2.28 0.45 0.88 0.77 4.22c0.01,0.03 0.05,0.08 0.07,0.12l0.05 1.68c0.03,0.04 0.07,0.05 0.08,0.13 0.01,0.07 0.06,0.1 0.07,0.13 0.01,0.03 0.04,0.09 0.06,0.14l0.17 0.81 0.28 0.43 0.17 0.56 0.61 0.19 0.03 -0.85c0.03,-0.03 0.08,-0.07 0.1,-0.09l0.49 -0.34c-0.52,-0.3 -0.4,-0.11 -0.75,-0.51l-0.16 -2.82 -0.05 -0.65 -0.07 -2.27 0.05 -0.65 0.02 -2.56 -0.26 -0 -0.05 -0.17c-0.08,-1.37 -0.29,-1.1 -0.32,-1.29 -0.01,-0.05 -0.05,-0.06 -0.06,-0.1l0.5 -1.1c0.38,-0.11 0.29,-0 0.55,-0.07 0.7,-0.18 0.3,0.11 0.58,-0.29 0.48,-0.6 0.28,-3.89 0.24,-4.91l-0.44 -2.9c-0.24,-1.23 -0.97,-1.51 -2.15,-1.94l-0.04 -0.02c-0.27,0.21 -0.15,0 -0.42,0.38l-0.58 2.17c-0.22,1.66 -0.54,3.08 -0.52,4.9l0.12 1.16 -0.4 0.01 -1.11 -0.39 -0 -0.78c0.08,-1.34 0.01,-2.55 0.14,-3.94 0.1,-1.08 0.57,-2.4 0.55,-3.16l0.28 -0.26c-0.17,-0.58 -0.09,-0.33 -0.82,-0.6 -0.46,0.07 -0.75,0.15 -1.2,0.28 -0.23,0.06 -0.45,0.12 -0.64,0.22 -0.67,0.33 -0.16,0.04 -0.43,0.31 -1.17,0.02 -1.36,0.78 -2.78,0.62l-1.56 -0.26 -1.33 -0.23 -0.32 0.04c-0.23,1.31 -0.33,1.26 0.97,1.63 0.46,0.13 2.11,0.56 2.18,0.58l0 -0z"></path>
  <path class="fil10" d="M60.86 22.98c0.73,0.27 0.65,0.02 0.82,0.6l0.26 0.5c0.46,-0.05 0.47,-0.08 0.8,-0.16l0.47 -0.07c0.27,-0.38 0.15,-0.18 0.42,-0.39l0.04 0.02 -0.34 -0.27c0,-0.9 0.01,-1.05 0.44,-1.59l0.1 -0.55c-0.32,0.09 -0.57,0.25 -0.89,0.41l-0.29 -1.05c-1.01,0.02 -1.05,0.23 -2.07,0.01l0.24 2.53 -0 -0z"></path>
  <path class="fil11" d="M61.4 23.83c0.02,0.76 -0.45,2.08 -0.55,3.16 -0.13,1.39 -0.06,2.59 -0.14,3.94l0.3 -0.01c-0.24,-1.09 0.18,-3.67 0.44,-4.85l0.37 -1.6c0.27,0.32 0.2,0.05 0.24,0.62 0,0.01 -0.11,0.72 -0.12,0.78 -0.07,0.53 -0.04,1.09 -0.06,1.63 -0.03,1.17 0.1,2.39 -0.12,3.53l0.06 1.1 0.4 -0.01 -0.11 -1.16c-0.02,-1.83 0.3,-3.24 0.52,-4.9l0.58 -2.17 -0.47 0.07c-0.32,0.08 -0.33,0.11 -0.8,0.16l-0.26 -0.5 -0.28 0.26 -0 -0z"></path>
  <path class="fil12" d="M60.63 19.58l-0.01 0.86c1.02,0.22 1.06,0.01 2.07,-0.01l0.29 1.05c0.32,-0.16 0.57,-0.32 0.89,-0.41l0.04 -1.5c-0.44,-0.66 -0.16,-0.48 -0.96,-0.84 -0.64,-0.12 -0.95,-0.13 -1.5,0.14 -0.49,0.24 -0.53,0.5 -0.84,0.69l0 0z"></path>
  <path class="fil13" d="M62.61 40.01l0.43 4.11 -0.01 0.91 0.09 -0.1 0.77 0.02 0.1 -0.33 -0.05 -1.68c-0.03,-0.04 -0.06,-0.09 -0.07,-0.12l-0.77 -4.22 -0.45 -0.88 -0.02 2.28 0 0z"></path>
  <path class="fil6" d="M61.01 30.92l0.28 0.31c0.41,-0.17 0.14,-0.06 0.47,-0.22 0.22,-1.14 0.09,-2.36 0.12,-3.53 0.02,-0.54 -0.01,-1.1 0.06,-1.63 0.01,-0.05 0.12,-0.76 0.12,-0.78 -0.04,-0.57 0.03,-0.3 -0.24,-0.62l-0.37 1.6c-0.26,1.18 -0.68,3.76 -0.44,4.85l0 0z"></path>
  <path class="fil14" d="M63.12 44.93c0.09,0.98 0.27,1.06 -0.56,1.27l-0.52 -0.05 -0.18 0.48c1.2,1.15 1.28,0.4 2.44,0.76l0.06 -1.56 -0.17 -0.81c-0.01,-0.04 -0.05,-0.1 -0.06,-0.14 -0.01,-0.03 -0.06,-0.06 -0.07,-0.13 -0.01,-0.07 -0.05,-0.09 -0.08,-0.13l-0.1 0.33 -0.77 -0.02 -0 -0z"></path>
  <path class="fil10" d="M64.39 34.71c0.01,0.04 0.05,0.05 0.06,0.1 0.03,0.2 0.23,-0.08 0.32,1.29l0.05 0.17 0.26 0c1.19,-0.31 0.96,-1.2 0.85,-2.46l-1.04 -0.21 -0.5 1.1 -0 0z"></path>
  <path class="fil15" d="M61.48 44.99l-0.36 0.24 -0.15 0.31c0.05,0.57 0.04,0.73 0.37,1.15 0.43,-0.1 0.16,-0.04 0.52,-0.07l0.18 -0.48c-0.1,-0.86 -0.1,-1.26 0.52,-1.49 -0.61,-0.08 -0.66,-0.02 -1.09,0.33l0 0z"></path>
  <path class="fil16" d="M61.82 32.1l-0.06 -1.1c-0.34,0.16 -0.06,0.05 -0.47,0.22l-0.28 -0.31 -0.3 0.01 0 0.78 1.11 0.39 0 0z"></path>
  <path class="fil17" d="M62.56 46.2c0.83,-0.21 0.65,-0.29 0.56,-1.27l-0.09 0.1c-0.42,0.38 -0.64,0.57 -0.47,1.17l0 0z"></path>
  <path class="fil18" d="M61.76 48.52c-0.02,0.67 0.25,1.52 0.44,2.03 0.46,0.09 0.81,0.44 1.28,0.76 0.87,-0.16 1.87,-1.07 2.47,-1.18 -1.18,-0.05 -0.18,0.05 -0.6,-0.32l-0.54 -1.01c-0.45,-0.09 -0.34,-0.08 -0.51,-0.3 -0.45,-0.1 -1.4,-0.1 -2.48,-0.37l-0.07 0.39 -0 0z"></path>
  <path class="fil19" d="M60.9 52.59c0.56,0.2 0.23,0.26 0.67,0.02 0.53,-0.29 0.42,-0.02 0.35,-0.56l-1.06 -0.51 0.04 1.05 0 0z"></path>
  <path class="fil20" d="M72.48 44.79c0.53,0.15 0.83,0.31 1.18,0.72 0.25,-0.18 0.53,-0.29 0.89,-0.5l-0.65 -0.24 -1.36 -0.7c-0.95,-0.37 -1.93,0.02 -2.4,0.85 -0.36,0.64 -0.08,0.78 -0.03,0.87 0.52,-0.24 0.13,0.07 0.55,-0.52 0.8,-1.14 1.72,-0.72 1.82,-0.47l0 -0z"></path>
  <g id="_1901186920032">
   <path class="fil5" d="M7.68 53.07l0.16 1.4c0.49,0.15 0.2,0.18 0.71,0.79 0.95,1.12 1.35,0.15 2.22,0.42 0.54,0.17 -0.34,0.15 0.71,0.19 0.9,0.04 1,-0.22 1.2,-0.77l0.42 -0.93 -0.16 -1.48c-0.04,-1.8 -0.1,-3.58 -0.31,-5.37 -0.19,-1.68 -0.72,-3.12 -0.95,-4.64 -0.02,-0.24 -0.03,-0.65 -0.06,-0.87 -0.01,-0.07 -0.04,-0.28 -0.05,-0.34 -0.09,-0.42 0.04,-0.1 -0.15,-0.41 0.12,-0.61 -0,-1.9 -0.26,-2.31l-0.18 -1.49c-0.38,-0.97 -0.39,-2.37 -1.44,-2.68 -2.51,1.63 -2.22,15.41 -1.86,18.49l-0 0z"></path>
   <path class="fil6" d="M13.1 54.18c0.57,0.33 0.79,0.49 0.98,1.13 -1.04,2.32 -5.9,2.2 -6.96,-0.04l0.71 -0.79 -0.16 -1.4c-2.23,0.36 -1.39,2.93 -0.75,4.33 0.81,1.78 -0.02,3.24 2.6,3.93 1.39,0.03 2.61,0.17 3.69,-0.79 0.94,-0.83 0.52,-2.48 1.26,-3.31 0.87,-2.51 1.23,-3.35 -1.54,-4.53l0.16 1.48 0 -0z"></path>
   <path class="fil7" d="M9.53 61.33c1.63,1.56 5.77,0.5 7.9,0.41 0.57,-0.8 -0.18,-0.26 0.55,-0.63 0.4,-0.2 0.65,-0.13 1.02,-0.37l0.02 -1.57c-0.82,-0.64 -0.82,-0.66 -1.85,-0.94 -1.08,-0.29 -1.25,-0.3 -2.49,-0.33l-0.19 -0.66c-0.74,0.82 -0.32,2.47 -1.26,3.31 -1.08,0.96 -2.29,0.83 -3.69,0.79l0 0z"></path>
   <path class="fil8" d="M7.84 54.47l-0.71 0.79c1.06,2.24 5.92,2.37 6.96,0.04 -0.19,-0.64 -0.41,-0.8 -0.98,-1.13l-0.42 0.93c-0.2,0.55 -0.3,0.81 -1.2,0.77 -1.04,-0.05 -0.17,-0.02 -0.71,-0.19 -0.87,-0.27 -1.27,0.7 -2.22,-0.42 -0.51,-0.61 -0.23,-0.64 -0.71,-0.79l-0 0z"></path>
  </g>
  <g id="_1901186922864">
   <path class="fil21" d="M38.82 29.7c0.27,-0.36 2.07,-1.35 2.69,-1.54l6.58 -3.8 2.92 -1.68c0.31,-0.45 0.71,-0.31 1.19,-0.94 -0.17,-0.02 -0.1,0.22 -0.25,-0.17 -0.16,-0.45 0.29,0.19 0.09,-0.13 -0.72,0.03 -2.64,0.71 -2.94,0.87 0.8,-0.36 0.33,-0.18 0.37,0.24 0.07,0.59 0.23,0.01 -0.11,0.32 -0.84,0.78 0.25,-0.06 -0.73,-0.04l-1.24 0.19c0.38,-0.35 0.17,-0.2 0.52,-0.47 0.71,-0.57 0.99,-0.32 1.36,-1.07 -0.3,-0.17 -0.91,-0.27 -1.26,-0.04 -0.28,0.18 0.15,0.05 -0.28,0.2 -0.86,0.32 -0.48,-0.09 -0.59,-0.23 0.32,0.02 0.71,-0.3 1.02,-0.46 0.8,-0.42 0.75,-0.21 1.28,-1.18 -1.26,0.07 -1.61,0.58 -2.83,1.24 -0.21,0.11 -0.41,0.23 -0.55,0.3l-9.57 5.53c-1.2,0.56 -2.22,1.33 -3.36,2.01 -0.35,-0.36 -0.09,0.22 -0.09,-0.24l0.09 -0.13c-0.16,0.24 -0.04,0.1 -0.34,0.25l-0.52 0.2 -0.34 -6.37 3.77 0.12c0.24,-0.35 0.2,-0.3 0.55,-0.64 0.7,-0.69 1.51,-1.48 1.68,-2.46 -0.61,-0.26 -0.04,0.07 -0.42,-0.24l-0.57 -0.85c-0.99,-2.05 -1.71,-0.42 -2.35,1 -0.36,0.8 -0.75,1.69 -1.22,2.23l-0 -0.47c-1.04,0.44 -0.27,0.4 -1.45,0.56 0,-1.75 -0.23,-2.78 0.34,-3.95 -0.6,-0.28 -0.07,0.06 -0.31,-0.46 -0.54,-1.16 -0.05,-1.03 -0.1,-1.62 -1.25,0.47 -0.89,0.84 -0.89,3.8l0 14.39c1.15,-0.22 6.06,-3.64 7.82,-4.27l0 0z"></path>
   <path class="fil22" d="M39.96 10.9c-0.46,0.65 -1.84,1.27 -2.52,1.51 -0.37,0.63 -4.91,2.58 -5.56,3.38 0.05,0.59 -0.44,0.46 0.1,1.62 0.24,0.52 -0.28,0.18 0.31,0.46 -0.57,1.17 -0.34,2.19 -0.34,3.95 1.18,-0.17 0.41,-0.12 1.45,-0.56l0.57 -1.01c0.45,-0.92 1.61,-4.13 2.83,-2.58 0.14,0.18 0.23,0.36 0.33,0.54 0.23,0.41 0.41,0.71 0.66,1.07 1.92,-0.4 1.42,-2.86 3.26,-3.49 1.12,-0.07 1.36,2.33 2.72,0.52 0.35,-0.47 0.49,-0.71 0.84,-1.22 1.37,-1.97 1.67,-1.09 2.31,-0.83l0.45 -0.11c-0.22,-0.88 0.64,-1.26 -1.34,-1.26l-0.24 -0.4c-1.12,-0.06 -3.23,0.09 -3.85,-0.15 0.02,-1.03 0.31,-0.92 -0.03,-2.2 0.69,0.63 0.41,-0.84 0.48,1.03 0.05,1.39 -0.1,0.7 -0.34,1l0.79 0c-0.38,-0.44 -0.42,-1.06 -0.27,-1.69 0.26,-1.08 -0.45,0.32 0.17,-0.39 -0.75,0 -0.74,0.25 -0.86,0.08 -0.04,-0.06 -0.12,0.02 -0.19,0.02 -0.35,0.04 -0.6,0.21 -0.91,0.37 -0.59,0.31 -0.34,0.24 -0.83,0.34l-0 0z"></path>
   <path class="fil23" d="M51.64 4.21c-0.31,0.51 -1.28,0.89 -1.83,1.1 -0.21,0.33 -2.71,1.72 -3.43,1.99 -0.11,0.11 0.21,-0.09 -0.24,0.21 -0.1,0.07 -0.2,0.11 -0.32,0.18 -0.28,0.17 -0.39,0.25 -0.68,0.41l-2.2 1.33c-0.36,1.4 0.39,0.93 1.35,1 1.67,0.12 0.92,-0.26 1.93,0.52 0.6,-0.96 1.72,-0.43 2.4,-0.39 0.19,-0.32 0.94,-0.09 1.66,-0.19 -0.31,-0.72 -0.54,-1.31 0.02,-1.94 0.34,-0.55 0.47,-1.2 0.99,-1.76 0.42,-0.45 1.25,-1.07 1.91,-0.67 0.62,0.27 0.89,0.5 0.89,1.31l0.01 1.58 1.18 0.06c-0.07,-0.74 -0.17,-0.76 -0.15,-1.48l0.4 0.54 0 -5.81c-1.29,0.49 -2.8,1.81 -3.91,2.01l-0 -0z"></path>
   <path class="fil24" d="M35.04 12.57c-0.24,0.39 -3.45,2.14 -4.12,2.36 -0.33,0.43 -0.99,0.46 -1.24,0.85 -0.39,0.61 0.25,0.81 0.38,0.88l0.41 0.16 0.01 13.91c0,1.51 0.22,3.51 -0.41,4.37 0.7,0.62 0.65,0.26 0.76,1.33 1.25,-0.45 3.18,-1.76 4.39,-2.43 0.88,-0.48 3.58,-1.82 4.06,-2.5 -0.71,0.16 -0.42,-0.18 -1.26,-0.32l0.8 -1.5c-1.77,0.63 -6.67,4.05 -7.82,4.27l0 -14.39c0,-2.96 -0.37,-3.33 0.89,-3.8 0.66,-0.8 5.19,-2.75 5.56,-3.38 -0.03,-0.05 -0.08,-0.2 -0.09,-0.24 -0.01,-0.04 -0.05,-0.21 -0.07,-0.25 -0.16,-0.48 0.15,-0.12 -0.16,-0.31l-0.31 -0.13c-0.22,0.31 0.01,0.09 -0.36,0.42 -0.02,0.01 -0.37,0.24 -0.41,0.27 -0.36,0.19 -0.63,0.29 -0.99,0.42l-0 -0z"></path>
   <path class="fil25" d="M47.9 26.68c-0.64,0.48 -3.85,2.02 -4.1,2.52l0 6.35c1.15,0.15 2.07,-0.16 3.41,0.18l0.53 -0.22 -0.01 -6.13c0.02,-0.5 0.38,-1.9 -0.32,-1.21l1.17 -0.48c1.09,-0.49 2.09,-1.31 2.97,-2.04 0.59,-0.49 0.44,0.19 0.83,-0.74 -0.66,0.2 -0.81,0.16 -1.25,0.28l-0.24 -0.07 -2.99 1.57 0 0z"></path>
   <path class="fil26" d="M41.5 28.16c0.55,0.42 0.13,-0.04 0.39,0.52l-1.11 1.03c0.5,0.15 0.79,0.06 0.84,-0.16 0.01,-0.05 0.06,-0.05 0.1,-0.06 0.42,0.38 0.15,-0.04 0.2,0.62 0.52,-0.21 0.14,-0.09 0.6,-0.14 0.14,-0.22 -0,-0.21 0.21,-0.1l-0.06 6.95c-2.54,0.37 -3.72,-0.02 -3.86,1.14l3.85 -0.27c-0.08,1.28 -0.41,2.62 -0.24,3.89l0.53 0.01 0.18 -0.38 0.07 -0.61 0 -0.14 0.26 -2.7c1.64,0 3.22,0.62 4.86,0.49l-0.11 -0.61 -4.67 -0.81 -0.04 -5.92c-0.02,-1.64 -0.09,-1.33 0.28,-1.72 0.25,-0.5 3.46,-2.04 4.1,-2.52l0.36 -0.74c-0.07,0.02 -0.15,0.04 -0.22,0.07l-0.87 0.35c0.24,-0.06 0.22,-0.59 0.24,-0.63l0.39 -0.26c0.48,-0.17 -0.29,-0.39 0.59,-0.05 -0.03,-0.05 -0.09,-0.1 -0.12,-0.14 -0.62,-0.78 -0.09,-0.6 -0.17,-0.92l-6.58 3.8 -0 -0z"></path>
   <path class="fil27" d="M51.52 3.27l-0.26 0.86c0.26,0.2 -0.38,0.45 0.38,0.08 1.12,-0.21 2.62,-1.52 3.91,-2.01l0 5.81 -0 11.74c-0.32,0.54 -2.78,1.91 -3.35,1.99 -0.48,0.63 -0.88,0.49 -1.19,0.94 -0.1,0.56 -0.42,-0.13 0.34,0.56l1.1 0.79 0.17 -0.06 0.32 -0.04 4.14 -2.38c0.11,-1.73 -0.74,-1.08 -1.01,-1.96l-0.01 -16.67c0,-0.99 0.27,-1.2 0.21,-1.94 -0.03,-0.01 -0.07,-0.03 -0.09,-0.04 -0.02,-0.01 -0.08,-0.03 -0.1,-0.04l-0.64 -0.11c-0.55,0.82 -3.28,1.77 -3.91,2.48l0 0z"></path>
   <path class="fil28" d="M48.62 10.56c-0.26,0.62 -0.22,0.74 -0.1,1.55 1.29,0.02 1.16,0.16 1.45,0.44l-1.51 0.05c-1.46,-0.3 -1.47,0.01 -1.98,-0.32 -0.7,-0.11 -0.12,-0.23 -0.7,0.21l0.24 0.4c1.98,0 1.12,0.38 1.34,1.26l-0.45 0.11 0.13 0.84c-0.54,0.12 -0.53,0.37 -0.74,0.65 -1.03,1.35 -1.12,1.11 -2.89,1.32l-0.47 0.18c-0.16,0.26 0.06,-0.06 -0.34,0.25l-0.9 0.84c-0.07,0.06 -0.25,0.19 -0.39,0.31 -1.4,1.12 -1.28,0.22 -2.04,0.15 -0.65,0.29 -0.33,0.18 -0.51,0.52 0.9,0.52 1.11,0.64 2.47,0.57 0.17,-0.22 0.24,-0.3 0.46,-0.52l1.71 -1.52c0.25,-0.13 1.35,-0.28 1.67,-0.37 1.47,-0.44 0.58,-0.01 1.6,-0.81 0.61,0.51 0.26,0.34 1.34,0.38l0.08 0.83c0.26,-0.63 0.1,-0.64 0.16,-1.36l0.14 -0.76c0.2,-0.92 -0.12,-1.51 -0.1,-2.69l1.93 -0.14c-0.23,0.89 -0.08,0.75 -0.09,1.59 -0,0.67 -0.38,1 0.15,1.65 -0.06,-1.06 -0.02,-1.46 0.42,-2.26 0.38,-0.67 0.43,-0.79 1.05,-1.31 -0.36,-0.25 -0.83,-0.38 -0.82,-0.23l1.22 -0.17c-0.79,-0.84 -0.09,0.47 -1.41,-0.73 0.62,0.14 0.48,0.21 1.29,0.01 0.04,-0.01 0.12,0 0.15,-0.06 0.03,-0.06 0.1,-0.04 0.15,-0.06 -0.47,-0.29 -0.6,-0.07 -1.33,-0.1l-0.47 -0.65c-0.18,-0.52 -0.29,-1.34 -0.23,-2.17 -0.56,0.63 -0.33,1.22 -0.02,1.94 -0.72,0.1 -1.47,-0.12 -1.66,0.19l-0 -0z"></path>
   <path class="fil29" d="M48.33 38.26l0.33 0.38 -1.08 0.87c-1.52,1.01 -2.56,0.58 -4.36,0.95l-0 0.14c1.3,0.44 0.86,-0.25 1.09,0.27 2.68,-0.52 2.38,0.63 6.26,-1.21 0.13,-1.16 0.04,-1.61 -0.74,-2.05 -2.67,-1.51 -2.6,-0.58 -3.96,-1.11 -0.48,-0.19 -0.62,-0.2 -1.12,-0.31 -0.35,-0.08 -0.76,-0.05 -0.95,-0.31l0 -0.34 0 -6.35c-0.37,0.38 -0.3,0.07 -0.28,1.72l0.04 5.92 4.67 0.81 0.11 0.61 0 -0z"></path>
   <path class="fil30" d="M43.22 40.61l-0.07 0.61 0.65 -0.16c1.49,0.16 2.86,0.37 4.46,0.18 0.43,-0.05 1.35,-0.23 1.87,-0.36 0.05,-0.01 0.09,-0.02 0.14,-0.04l0.25 -0.09c0.77,-0.26 0.52,-0.16 1.54,-0.22 0.17,-0.6 0.55,-0.88 0.72,-1.54 -0.44,-0.71 -0.12,0.18 -0.71,-0.86 -0.02,-0.03 -0.04,-0.08 -0.05,-0.12 -0.42,-0.7 -1.94,-1.29 -2.78,-1.55 -1.8,-0.54 -3.46,-0.57 -5.43,-0.57 0.19,0.26 0.6,0.23 0.95,0.31 0.49,0.11 0.63,0.12 1.12,0.31 1.36,0.52 1.3,-0.41 3.96,1.11 0.78,0.44 0.86,0.89 0.74,2.05 -3.88,1.85 -3.58,0.69 -6.26,1.21 -0.23,-0.52 0.22,0.17 -1.09,-0.27l0 0z"></path>
   <path class="fil31" d="M54.26 24.15l1.56 0.26c1.42,0.16 1.61,-0.6 2.78,-0.62 0.27,-0.27 -0.24,0.02 0.43,-0.31 0.19,-0.09 0.41,-0.15 0.64,-0.22 0.45,-0.13 0.74,-0.2 1.2,-0.28l-0.24 -2.53 0.01 -0.86 -0.22 0.5c-0.4,1 -0.48,0.58 -0.56,0.93 -0.11,0.51 0.07,-0.36 0.07,0.28l-0.48 -0.12c-0.43,0.03 -0.87,0.41 -1.04,0.51l-4.16 2.45 -0 0z"></path>
   <path class="fil32" d="M43.22 40.46c1.8,-0.38 2.85,0.06 4.36,-0.95l1.08 -0.87 -0.33 -0.38c-1.64,0.13 -3.22,-0.49 -4.86,-0.49l-0.26 2.7 0 0z"></path>
   <path class="fil32" d="M38.82 37.97c0.61,1.43 1.94,2.06 3.32,2.49 0.12,0.94 -0.35,0.45 0.3,1.13 -0.18,-1.27 0.15,-2.61 0.24,-3.89l-3.85 0.27 -0 0z"></path>
   <path class="fil33" d="M38.82 29.7l-0.8 1.5c0.85,0.15 0.55,0.48 1.26,0.32 0.63,-0.04 0.83,-0.29 1.41,-0.62 0.46,-0.26 0.96,-0.56 1.24,-0.77 -0.05,-0.66 0.23,-0.24 -0.2,-0.62 -0.04,0.01 -0.09,0.01 -0.1,0.06 -0.06,0.21 -0.35,0.3 -0.84,0.16l1.11 -1.03c-0.26,-0.55 0.15,-0.1 -0.39,-0.52 -0.61,0.18 -2.42,1.17 -2.69,1.54l0 0z"></path>
   <path class="fil23" d="M51.23 14.2c-0.22,0.83 -0.43,1.19 -0.13,2 1.23,1.45 3.21,-1.8 1.95,-3.3 -0.97,0.07 -1.35,0.55 -1.82,1.3l0 0z"></path>
   <path class="fil34" d="M51.58 10.28c1.05,-0.26 1.42,-0.86 1.74,-1.71l0.09 -1.6 -0.36 -0.39c-0.9,-0.07 -1.15,0.33 -1.55,0.97 -0.57,0.92 -0.55,1.06 -0.48,2.3l0.56 0.43 -0 0z"></path>
   <path class="fil5" d="M53.05 12.9c1.27,1.5 -0.72,4.75 -1.95,3.3 -0.3,-0.81 -0.09,-1.17 0.13,-2 -0.26,-0.37 0.2,-0.17 -0.53,-0.3 -0.45,0.8 -0.48,1.2 -0.42,2.26 1.57,3.56 5.68,-1.98 3.04,-3.8l-0.24 -0 -0.03 0.55 0 -0z"></path>
   <path class="fil9" d="M43.75 7.64c-0.32,0.58 -0.55,0.65 -1.16,0.87 -0.52,0.05 -2.71,1.28 -3.08,1.68 -0.15,0.67 -0.15,-0.09 0.33,0.52 0.01,0.02 0.04,0.06 0.05,0.07 0.01,0.01 0.03,0.05 0.03,0.06 0.04,0.06 -0.26,0.09 0.05,0.06 0.48,-0.1 0.23,-0.03 0.83,-0.34 0.31,-0.16 0.56,-0.33 0.91,-0.37l0.5 -0.44c0.53,-0.32 0.2,-0.13 0.74,-0.33l2.2 -1.33c-0.04,-0.7 0,-0.71 -0.55,-0.91 -0.3,0.14 -0.53,0.3 -0.84,0.44l0 0z"></path>
   <path class="fil35" d="M48.09 24.36c0.08,0.32 -0.45,0.14 0.17,0.92 0.03,0.04 0.09,0.09 0.12,0.14 -0.88,-0.34 -0.12,-0.12 -0.59,0.05l-0.39 0.26c-0.02,0.04 0.01,0.57 -0.24,0.63l0.87 -0.35c0.07,-0.02 0.14,-0.05 0.22,-0.07l-0.36 0.74 2.99 -1.57c-0.3,-0.53 0.06,-0.02 -0.27,-0.32 -0.6,-0.53 -0.6,-0.18 -0.47,-1.11 0.84,-0.2 0.59,0.14 1.2,-0.45 -0.76,-0.68 -0.44,0.01 -0.34,-0.56l-2.92 1.68 0 -0z"></path>
   <path class="fil21" d="M39.27 18.8c0.77,0.07 0.64,0.96 2.04,-0.15 0.14,-0.12 0.32,-0.24 0.39,-0.31l0.9 -0.84c0.4,-0.31 0.18,0.01 0.34,-0.25 -0.58,-0.03 -0.65,-0.19 -0.95,-0.5 -0.54,-0.57 -1.03,-1.39 -2,0.39 -0.37,0.67 -0.63,1.02 -0.72,1.66l0 0z"></path>
   <path class="fil26" d="M46.07 6.32l-0.05 0.59 0.36 0.4c0.72,-0.27 3.22,-1.66 3.43,-1.99l0.19 -0.84c-0.2,-0.21 0.3,-0.44 -0.31,-0.09l-0.24 -0.15c-0.24,0.29 -0.35,0.44 -0.76,0.68 -0.34,0.2 -0.6,0.27 -0.92,0.43 -0.6,0.31 -1.18,0.67 -1.7,0.97l-0 0z"></path>
   <path class="fil21" d="M43.41 17.07c1.77,-0.21 1.86,0.03 2.89,-1.32 0.21,-0.28 0.2,-0.53 0.74,-0.65l-0.46 -0.58c-0.1,-0.12 -0.19,-0.21 -0.33,-0.34 -1.55,0.13 -1.21,1.59 -2.85,2.88l0 -0z"></path>
   <path class="fil36" d="M50.31 8.42c-0.06,0.83 0.06,1.64 0.23,2.17l1.03 0.02 0.01 -0.33 -0.56 -0.43c-0.07,-1.24 -0.09,-1.38 0.48,-2.3 0.4,-0.64 0.65,-1.04 1.55,-0.97l0.16 -0.59c-0.66,-0.4 -1.5,0.23 -1.91,0.67 -0.52,0.56 -0.65,1.21 -0.99,1.76l0 0z"></path>
   <path class="fil9" d="M37.12 11.6c0.31,0.2 0,-0.16 0.16,0.31 0.01,0.04 0.06,0.21 0.07,0.25 0.01,0.04 0.06,0.19 0.09,0.24 0.67,-0.24 2.06,-0.85 2.52,-1.51 -0.31,0.04 -0.01,0 -0.05,-0.06 -0.01,-0.01 -0.02,-0.05 -0.03,-0.06 -0.01,-0.01 -0.04,-0.06 -0.05,-0.07 -0.47,-0.61 -0.47,0.15 -0.33,-0.52 -0.59,0.18 -0.8,0.38 -1.34,0.65l-0.86 0.54c-0.02,0.02 -0.07,0.13 -0.09,0.1 -0.02,-0.03 -0.06,0.07 -0.09,0.11l0 0z"></path>
   <path class="fil37" d="M46.49 12.28l1.75 -0.11c-0.31,-0.26 -0.52,0.48 -0.48,-0.84 0.03,-1.16 -0.15,-0.3 0.46,-0.71 -0.84,0.11 -0.83,-0.2 -1.81,0.04 -0.22,0.5 -0.25,0.54 -0.11,1.06l0.18 0.56 -0 0z"></path>
   <path class="fil5" d="M51.58 10.28l-0.01 0.33c-0.11,0.23 -0.07,0.17 -0.18,0.31l1.15 -0.16c0.61,-0.51 1.08,-0.87 1.4,-1.93 -0.2,-0.4 0.32,-0.31 -0.63,-0.26 -0.32,0.85 -0.69,1.45 -1.74,1.71l0 0z"></path>
   <path class="fil26" d="M49.69 4.39c0.61,-0.35 0.11,-0.12 0.31,0.09l-0.19 0.84c0.55,-0.21 1.52,-0.59 1.83,-1.1 -0.76,0.37 -0.12,0.12 -0.38,-0.08l0.26 -0.86c-0.57,0.22 -1.46,0.57 -1.83,1.12l0 -0z"></path>
   <path class="fil38" d="M51.76 12.58c-0.62,0.52 -0.67,0.65 -1.05,1.31 0.73,0.14 0.26,-0.06 0.53,0.3 0.47,-0.75 0.85,-1.23 1.82,-1.3l0.03 -0.55 0.24 0 -0.58 -0.13 -0.99 0.36 -0 -0z"></path>
   <path class="fil27" d="M42.58 8.51c0.62,-0.22 0.85,-0.29 1.16,-0.87 -0.35,-0.05 -0.14,0.19 -0.21,-0.25l-0.09 -0.98 -0.76 -0.04 0.05 -0.01c-0.05,0.86 0.07,1.45 -0.16,2.15l0 0z"></path>
   <path class="fil9" d="M30.83 36.44c-0.11,-1.07 -0.06,-0.71 -0.76,-1.33l-0.45 0.16c-0.12,0.93 0.05,1.03 0.63,1.48l0.58 -0.31 -0 0z"></path>
   <path class="fil26" d="M44.59 7.2c0.55,0.2 0.51,0.21 0.55,0.91 0.29,-0.16 0.4,-0.25 0.68,-0.41 0.12,-0.07 0.22,-0.11 0.32,-0.18 0.45,-0.29 0.13,-0.1 0.24,-0.21l-0.36 -0.4 0.05 -0.59 -1.48 0.88 0 0z"></path>
   <path class="fil5" d="M53.32 8.57c0.95,-0.05 0.43,-0.14 0.63,0.26l0.17 0.05 -0.01 -1.58c-0.29,0.3 0.01,0.24 -0.3,0.07 -0.03,-0.02 -0.15,-0.15 -0.18,-0.18l-0.22 -0.23 -0.09 1.6 0 -0z"></path>
   <path class="fil5" d="M53.05 6.58l0.36 0.39 0.22 0.23c0.03,0.02 0.15,0.16 0.18,0.18 0.31,0.17 0.01,0.23 0.3,-0.07 -0.01,-0.81 -0.27,-1.04 -0.89,-1.31l-0.16 0.59 0 0z"></path>
   <path class="fil38" d="M33.05 22.06l0 0.18c0.47,-0.44 0.86,-0.97 1.22,-1.45 0.64,-0.86 1.35,-1.83 2.35,-1.55l0.57 0.04c0.38,-0.08 -0.19,0.09 0.42,-0.12l0.7 -0.43c0.02,-0.01 0.06,-0.04 0.09,-0.06 0.18,-0.22 -0.14,-0.02 0.51,-0.45 0.09,-0.29 0.35,-0.55 0.72,-0.99 0.98,-1.16 1.46,-1.1 2,-1.15 0.3,-0.03 0.37,-0 0.95,-0.28l0.47 -0.3c1.64,-1.31 1.31,-1.7 2.85,-2.52 0.14,-0.02 0.23,-0.03 0.33,-0.03l0.46 -0.01 -0.13 -0.26c-0.63,0.22 -0.93,0.03 -2.31,1.46 -0.35,0.37 -0.49,0.53 -0.84,0.88 -1.36,1.37 -1.6,0.57 -2.72,1.16 -1.84,1.15 -1.34,1.84 -3.26,2.95 -0.25,-0.01 -0.43,-0.04 -0.66,-0.08 -0.1,-0.02 -0.19,-0.04 -0.33,-0.04 -1.21,0.01 -2.38,1.82 -2.83,2.39l-0.57 0.67 0 -0z"></path>
   <path class="fil20" d="M33.4 21.25l0 0.47c0.47,-0.53 0.86,-1.43 1.22,-2.23 0.64,-1.41 1.35,-3.05 2.35,-1l0.57 0.85c0.38,0.3 -0.19,-0.02 0.42,0.24l0.7 -0.22c0.02,-0.01 0.06,-0.03 0.09,-0.04 0.18,-0.34 -0.14,-0.23 0.51,-0.52 0.09,-0.64 0.35,-0.99 0.72,-1.66 0.98,-1.78 1.46,-0.97 2,-0.39 0.3,0.31 0.37,0.47 0.95,0.5l0.47 -0.18c1.64,-1.29 1.31,-2.75 2.85,-2.88 0.14,0.12 0.23,0.22 0.33,0.34l0.46 0.58 -0.13 -0.84c-0.63,-0.26 -0.93,-1.14 -2.31,0.83 -0.35,0.51 -0.49,0.75 -0.84,1.22 -1.36,1.8 -1.6,-0.59 -2.72,-0.52 -1.84,0.63 -1.34,3.09 -3.26,3.49 -0.25,-0.37 -0.43,-0.67 -0.66,-1.07 -0.1,-0.18 -0.19,-0.36 -0.33,-0.54 -1.21,-1.55 -2.38,1.66 -2.83,2.58l-0.57 1.01 0 0z"></path>
   <path class="fil39" d="M47.32 21.42l0 0c0.02,0.03 0.01,0.08 -0.03,0.09l-13.51 7.73c-0.03,0.02 -0.08,0.01 -0.09,-0.03l-0 0c-0.02,-0.03 -0.01,-0.08 0.03,-0.09l13.51 -7.73c0.03,-0.02 0.08,-0.01 0.1,0.03z"></path>
   <path class="fil39" d="M47.28 22.77l0 0c0.02,0.03 0.01,0.08 -0.03,0.09l-13.51 7.72c-0.03,0.02 -0.08,0.01 -0.09,-0.03l-0 -0c-0.02,-0.03 -0.01,-0.08 0.03,-0.09l13.51 -7.73c0.03,-0.02 0.08,-0.01 0.09,0.03z"></path>
  </g>
  <path class="fil13" d="M62.61 40.01l0.43 4.11 -0.01 0.91 0.09 -0.1 0.77 0.02 0.1 -0.33 -0.05 -1.68c-0.03,-0.04 -0.06,-0.09 -0.07,-0.12l-0.77 -4.22 -0.45 -0.88 -0.02 2.28 0 0z"></path>
  <path class="fil14" d="M63.12 44.93c0.09,0.98 0.27,1.06 -0.56,1.27l-0.52 -0.05 -0.18 0.48c1.2,1.15 1.28,0.4 2.44,0.76l0.06 -1.56 -0.17 -0.81c-0.01,-0.04 -0.05,-0.1 -0.06,-0.14 -0.01,-0.03 -0.06,-0.06 -0.07,-0.13 -0.01,-0.07 -0.05,-0.09 -0.08,-0.13l-0.1 0.33 -0.77 -0.02 -0 -0z"></path>
  <path class="fil32" d="M61.35 46.7c-0.09,0.56 -0.11,0.38 0.01,0.99 0.01,0.06 0.1,0.35 0.12,0.41 0.15,0.38 0.09,0.21 0.2,0.37l0.07 -0.41c1.12,0.28 2.11,0.28 2.59,0.39l-0.03 -1.05c-1.16,-0.37 -1.24,0.39 -2.44,-0.76 -0.35,0.03 -0.09,-0.03 -0.52,0.07l0 0z"></path>
  <path class="fil10" d="M50.89 25.11l0.24 0.07 0.03 -0.24 1.08 -0c0.03,-0.45 0.09,-0.61 0.2,-0.92l-1.1 -0.79c-0.61,0.6 -0.36,0.25 -1.2,0.45 -0.13,0.93 -0.12,0.58 0.47,1.11 0.34,0.3 -0.02,-0.21 0.27,0.32l-0 -0z"></path>
  <path class="fil15" d="M64.3 47.4l0.03 1.05c0.17,0.23 0.05,0.22 0.53,0.32 0.45,-0.61 -0.04,-0.46 0.56,-0.51l0 -1.24 -0.61 -0.19 -0.17 -0.56 -0.28 -0.43 -0.06 1.56 -0 -0z"></path>
  <path class="fil15" d="M61.48 44.99l-0.36 0.24 -0.15 0.31c0.05,0.57 0.04,0.73 0.37,1.15 0.43,-0.1 0.16,-0.04 0.52,-0.07l0.18 -0.48c-0.1,-0.86 -0.1,-1.26 0.52,-1.49 -0.61,-0.08 -0.66,-0.02 -1.09,0.33l0 0z"></path>
  <path class="fil17" d="M62.56 46.2c0.83,-0.21 0.65,-0.29 0.56,-1.27l-0.09 0.1c-0.42,0.38 -0.64,0.57 -0.47,1.17l0 0z"></path>
  <g id="_1901246513168">
   <path class="fil40" d="M83.09 41.12l-34.06 18.63c-1.79,1.03 -1.72,3.89 0.74,5.34l12.03 7.47c2.77,1.72 5.25,1.84 7.56,0.45l32.16 -19.3c2.27,-1.43 2.18,-4.58 0.15,-5.75 -4.48,-2.64 -9.19,-3.94 -13.68,-6.58 -1.19,-0.74 -3.33,-1.09 -4.9,-0.27l-0 -0z"></path>
   <path class="fil7" d="M83.09 39.66l-33.7 19.86c-1.79,1.03 -2.08,2.66 0.37,4.11l12.03 7.47c2.77,1.72 5.25,1.84 7.56,0.45l32.16 -19.3c2.27,-1.43 1.96,-3.25 -0.07,-4.42 -4.48,-2.64 -8.97,-5.27 -13.45,-7.91 -1.19,-0.74 -3.33,-1.09 -4.9,-0.27l-0 0z"></path>
  </g>
  <path class="fil41" d="M94.12 42.66c-0.37,0.51 -0.77,0.88 -1.31,1.2 -0.11,0.45 -0.1,0.39 -0.58,0.44l-0.08 0.5 0.41 0.21 0.59 -0.09c0.18,-0.4 -0.22,-0.08 0.38,-0.51 0.25,-0.18 0.37,-0.17 0.6,-0.28 0.45,-0.34 0.39,-0.46 1.01,-0.51 0.23,-0.52 0.38,-1.02 0.81,-1.42 -0,0.75 -0.37,1.54 -0.64,2.79 0.61,0.21 0.46,0.14 0.67,0.52 -0.3,0.33 -0.3,0.45 -0.83,0.48 0.28,0.54 -0,0.44 0.61,0.67l0.46 -0.05c0.06,-0.34 0.49,-0.53 0.72,-0.55 0.41,-0.03 0.56,0.21 1.02,0.34 0.86,0.1 0.11,0.13 0.81,-0.21 0.42,-0.2 0.48,-0.19 1.04,-0.27 -0.55,-1.63 -0.7,-2.21 -0.03,-3.8 0.23,-0.54 0.5,-1.18 0.55,-1.75 0.09,-0.96 -0.23,-0.98 -0.78,-1.6l-1.5 0.22c-0.67,0.04 -0.29,0.06 -0.65,-0.17 -0.17,-0.11 -0.04,-0.05 -0.26,-0.24 -0.66,-0.57 0.35,0.05 -0.18,-0.14 -0.48,-0.07 -0.65,-0.03 -0.69,-0.54 -1.7,1.01 -0.95,3.91 -2.15,4.74l0 -0z"></path>
  <path class="fil5" d="M55.42 44.41c-0.56,0.73 -2.67,1.21 -3.26,2.25 -0.37,0.42 -0.19,0.25 -0.17,0.73 0.02,0.42 0.08,0.57 0.13,1.36 0.11,1.4 0.25,2.81 0.34,4.21 0.05,0.69 0.23,1.59 0.01,2.19 -0.31,0.85 -0.69,0.68 0.05,1.67 0.85,0.19 1.09,0.36 1.74,0 0.33,-0.18 0.93,-0.54 1.2,-0.76 -0.6,0.08 -0.14,0.09 -0.32,-0.25l0.29 -1.08 0.12 -0.09c-0.1,-0.25 -1.02,-0.66 -1.82,0.47 -0.42,0.59 -0.03,0.28 -0.55,0.52 -0.05,-0.09 -0.33,-0.23 0.03,-0.87 0.47,-0.83 1.46,-1.22 2.4,-0.85l-0.02 -0.5c0.14,-1.6 -0.43,-2.27 -0.37,-3.3 -0.03,-0.03 -0.06,-0.13 -0.07,-0.11l-0.21 -0.47c-0.14,-0.47 -0.35,-2.08 -0.16,-2.44 0.27,-0.9 1.13,-1.25 1.91,-1.58l0.4 -0.01c0.06,-0.74 0.16,-1.1 -0.22,-1.67l-1.47 0.58 0 -0z"></path>
  <path class="fil42" d="M96.6 54.29c0.09,0.76 0.29,1.12 0.38,1.64 1.73,0.71 -0.93,2.55 1.37,3.17 0.23,-1.1 0.23,-1.59 0.89,-2.21 0.57,-0.54 1.4,-0.71 1.79,-1.4l0.04 -0.44c0.14,-0.57 0.2,-0.82 0,-1.47 -0.14,-0.57 -0.46,-0.77 -0.56,-1.34 -0.11,-0.63 0.08,-1.11 -0.13,-1.83 -0.68,-2.34 -5.02,-1.28 -3.45,1.17 0.61,0.94 -0.24,1.54 -0.34,2.71l0 0z"></path>
  <path class="fil43" d="M99.54 38.78c0.55,0.62 0.86,0.64 0.78,1.6 -0.05,0.57 -0.32,1.21 -0.55,1.75 -0.67,1.6 -0.52,2.17 0.03,3.8 0.99,0.09 2.11,0.75 1.8,1.82 -0.86,-0.14 -0.3,-1.1 -1.79,-1.21l-0.06 0.97c0.51,0.42 1.91,1.37 2.53,1.37 0.91,-1.39 -0.27,-0.29 -0.06,-3.01 0.1,-1.27 0.18,-2.54 0.31,-3.81 0.1,-1.09 0.53,-2.74 -0.1,-3.53 -0.26,-0.32 -2.15,-1.36 -2.64,-1.51 0.1,0.55 -0.07,0.84 0.09,1.77l-0.32 -0.01 -0 0z"></path>
  <path class="fil43" d="M101.02 55.5c-0.39,0.69 -1.22,0.86 -1.79,1.4 -0.66,0.62 -0.66,1.11 -0.89,2.21l-0.5 2.67c-0.22,1.09 -0.21,2.49 -0.62,3.01l0.2 0.63c-0.01,0.09 0.01,0.21 0,0.27l-0.18 0.31c-0.62,-0.31 -0.18,0.36 -0.51,-0.63 -0.06,-0.18 -0.08,-0.48 -0.17,-0.74 -0.89,-0.18 -1.12,-0.57 -1.83,-0.62 -0.25,-0.31 0.07,-0.02 -0.37,-0.34 -0.01,-0 -0.4,-0.23 -0.43,-0.25 -0.31,-0.17 -0.58,-0.3 -0.82,-0.42 -0.71,-0.31 -0.31,-0.34 -1.17,-0.25 -0.33,0.49 -0.37,0.49 -0.37,1.28 0.27,0.24 0.69,0.53 0.88,0.91 0.6,0.03 4.17,2.08 4.41,2.58l0.5 0.16 0.75 0.19c-0.39,-0.15 -0.17,0.32 -0.33,-0.34 0.19,-0.56 0.35,-0.65 -0.23,-0.98 0.04,-0.3 0.03,-0.47 0.02,-0.55l0.04 -0.03c0.08,0.04 0.25,0.07 0.63,-0.07 -0.02,-1.72 0.52,-3.95 0.79,-5.47 0.29,-1.62 -0.01,-2.73 2.24,-3.6l2.53 -1.47c0.11,-0.07 0.17,-0.13 0.38,-0.23 -0.65,-1.69 -1.99,0.42 -3.17,0.36l0 0z"></path>
  <path class="fil44" d="M97.8 67.54c0.62,-0.17 3.09,-1.53 3.39,-1.95 0.72,-0.27 1.63,-0.77 2.28,-1.3 0.01,-1.66 -0.66,-0.05 -0.06,-4.59 0.2,-1.52 0.6,-3.06 0.78,-4.56 -0.21,0.1 -0.27,0.16 -0.38,0.23l-2.53 1.47c-2.25,0.87 -1.95,1.97 -2.24,3.6 -0.27,1.52 -0.8,3.75 -0.79,5.47 -1.03,0.38 -0.54,-0.5 -0.69,0.65 0.59,0.33 0.42,0.43 0.23,0.98l0 -0z"></path>
  <path class="fil5" d="M65.01 42.09l0.05 0.62 0.15 2.63 0 0 0 0 0.01 0.11 0.02 -0 0.1 0.46 0.04 0.4 -0 0 -0.03 0.81 -0 1.19c0.39,-0.19 0.3,-0.11 0.5,-0.49 0.16,-0.09 0.09,-0.04 0.25,-0.24 0.18,-0.22 0.16,-0.27 0.36,-0.46 0.76,-0.74 0.68,-0.06 1.04,-0.58l1.26 0.45c0.27,0.26 -0.42,0.26 0.53,0.18l0.8 0.42c0.42,-0.18 0.84,-0.48 1.25,-0.7 0.82,-0.45 0.78,-0.4 0.62,-1.55l-0.72 -0.06c0.01,-1.86 -0.21,-3.46 -0.28,-5.27 -0.15,-0.94 -0.17,-2.61 -0.95,-3.23 -0.73,-0.14 -3.1,1.33 -3.71,1.77 -0.51,0.3 -0.84,0.54 -1.31,0.75l-0.05 0.62 0.07 2.17 -0 0z"></path>
  <path class="fil45" d="M57.76 81.09c0.53,0.67 -0.12,-0.29 0.36,0.3 0.03,-0.03 0.07,-0.13 0.08,-0.1l1.67 -0.81c2.68,-1.07 1.95,-1.71 0.59,-2.79 -0.14,-0.11 -0.32,-0.22 -0.39,-0.28 -0.4,-0.32 -0.16,-0.06 -0.48,-0.56l-1.83 -0.36 -0.15 0.93c-0.82,0.33 -1.32,-0.74 -2.5,0.64 0.37,0.33 1.37,0.89 1.85,1.15 0.85,0.47 1.43,0.82 0.79,1.87l-0 0z"></path>
  <path class="fil35" d="M88.56 57.6c0.02,-0.02 0.04,-0.12 0.04,-0.09 0,0.02 0.03,-0.08 0.04,-0.09 0.25,-0.49 -0.22,0.05 0.08,-0.16 0.02,-0.01 0.35,0.01 0.44,-0.01 -0.01,-0.03 -0.04,-0.11 -0.04,-0.09l0.13 -0.36 0.32 -0.3 -1.28 -0.59 0.07 -0.51c0.82,-0.09 1.47,-0.08 1.93,0.43l0.73 0c0.52,-0.38 1.02,-0.25 1.76,-0.29l-0.83 -0.28c0.57,-0.38 0.69,-0.34 1.09,-0.88 -0.37,-0.27 -0.71,-0.48 -1.11,-0.78 -1.31,-0.97 -1.94,-0.1 -4.51,0.94 -0.79,0.02 -0.98,0.53 -1.85,0.67l-0.3 -1.16c-0.14,-0.96 -0.32,-1.57 -0.48,-2.47 0.17,-0.15 0.22,-0.19 0.43,-0.32 0.42,-0.27 0.23,-0.16 0.61,-0.34 0.18,-0.18 1.81,-1.21 2.17,-1.29l0.56 -0.58 0.03 -0.13c-0.72,0.38 -3.67,2.01 -4.09,2.42 -0.02,0.41 0.68,3.82 0.83,4.24 0.25,0.68 0.91,0.82 1.48,1.17 0.58,0.35 1.15,0.78 1.73,0.84l0 0z"></path>
  <path class="fil43" d="M78.11 70.94c0.23,0.16 0.13,0.09 0.33,0.26 1.27,1.09 3.16,1.79 4.67,2.77l0.02 0.56c0.14,0.22 0.18,0.29 0.29,0.57l0.37 -0.06c0.7,0 0.37,0.22 0.37,-0.54 0.01,-0.62 0.18,-0.93 -0.26,-1.54 0.04,0.56 0.21,0.22 -0.14,0.57 -0.4,-0.09 -0.1,0.3 -0.39,-0.36 -0.19,-0.44 -0.03,-0.96 -0.78,-2.15 -0.42,-0.67 -1.3,-1.71 -2.44,-1.68 -0.7,0.69 -1.58,0.61 -2.04,1.61l-0 -0z"></path>
  <path class="fil46" d="M57.6 75.99l0.17 0.5 1.83 0.36c0.32,0.5 0.08,0.25 0.48,0.56 0.07,0.06 0.26,0.17 0.39,0.28 1.36,1.09 2.09,1.73 -0.59,2.79l-1.67 0.81c-0.02,-0.03 -0.06,0.06 -0.08,0.1 -0.48,-0.59 0.17,0.37 -0.36,-0.3l0.03 -0.05c-0.05,0.04 -0.11,0.05 -0.15,0.13 -0.1,0.19 -0.55,0.17 -0.78,0.16 1,0.08 0.1,-0.05 0.5,0.3 1.32,0.26 5.53,-0.63 6.32,-1.78 0.06,-0.09 0.14,-0.24 0.25,-0.41 0.15,-0.22 0.13,-0.16 0.28,-0.39 -1.25,-2.44 -0.08,-0.7 -3.66,-2.44 -0.52,-0.25 -0.39,-0.2 -1.02,-0.28l-1.36 -0.26c-0.05,-0.01 -0.44,-0.06 -0.56,-0.09l0 0z"></path>
  <path class="fil43" d="M54.12 74.94l-0.18 0.3c-0.02,0.04 -0.07,0.16 -0.09,0.13 -0.02,-0.02 -0.06,0.08 -0.09,0.12 0.33,0.35 0.63,0.66 1.21,0.84l0.15 -0.17 -0.36 -0.02c0.68,-0.98 2.59,-1.8 3.95,-2.56 0.56,-0.32 0.76,-0.52 1.23,-0.85 -0.32,-0.84 -1.44,-1.36 -2.17,-1.65 -0.83,-0.01 -1.72,0.88 -2.16,1.51 -0.56,0.81 -0.73,2.16 -1.12,2.66 -0.68,0.04 -0.15,0.1 -0.38,-0.31l0 0z"></path>
  <path class="fil43" d="M85.31 65.09c-0.21,0.5 -0.09,0.24 -0.2,0.68 -0.16,0.6 0.05,0.24 -0.27,0.59l-0.18 2c-0.02,0.05 -0.04,0.1 -0.06,0.14 -0.01,0.03 -0.04,0.09 -0.05,0.14 -0.35,0.9 -0.23,0.81 -0.39,1.79 -0.13,0.78 -0.2,1.38 -0.25,2.12l-0 0.42c0.44,0.61 0.27,0.92 0.26,1.54 -0.01,0.77 0.33,0.55 -0.37,0.54l0.37 0.29c0.36,0.24 0,0.07 0.38,0.2l0.16 -0.16c-0.56,0.12 -0.12,0.07 -0.3,-0.11 0.02,-0.03 0.17,-0.3 0.18,-0.32 0.15,-0.52 -0.17,-0.95 0.21,-3.22 0.19,-1.13 0.38,-2.13 0.59,-3.25 0.93,-4.81 0.89,-2.8 3.04,-4.61 0.03,-0.03 0.08,-0.06 0.1,-0.08 1.83,-1.38 1.98,-1.47 1.96,-0.13 0.32,-0.55 0.36,-0.91 0.09,-1.51l-0.98 -0.03c-0.77,0.42 -1.65,0.97 -2.36,1.37 -0.81,0.47 -1.53,0.73 -1.95,1.6l-0 0z"></path>
  <path class="fil47" d="M96.65 33.97c-1.62,1.69 -0.27,0.55 -0.39,3.94 0.04,0.51 0.21,0.47 0.69,0.54 0.27,-0.65 -0.86,-0.16 -0.37,-2.47l1.22 -0.12c0.03,1.16 -0.04,2.27 0.24,3.13l1.5 -0.22 0.32 0.01c-0.16,-0.93 0.01,-1.22 -0.09,-1.77l0.02 -0.65c-0.39,-1.19 0.28,-1.18 -0.86,-2.07 -0.92,-0.72 -1.25,-0.3 -2.27,-0.33l-0 0z"></path>
  <path class="fil26" d="M65.2 60.14c0.55,0.23 0.22,0.09 0.65,0.36 0.14,0.09 0.3,0.2 0.51,0.31l-0.54 2.56 -0.27 1.12 -1.51 -0.62 -1.09 -0.74 -1.1 -0.41c-0.33,-0.05 -0.53,-0.11 -0.89,-0.28 -0.85,-0.4 -0.28,0.08 -0.61,-0.53l-1.04 0.5c-0.17,0.57 0.08,0.22 -0.54,0.69 -0.43,0.33 -0.43,0.17 -0.72,0.67 0.36,0.34 0.85,0.74 1.33,0.86 0.92,0.12 0.2,-0.17 0.86,0.45 -0.32,-0.87 0.07,-0.04 -0.23,-0.36 -0.27,-0.28 0.13,0.1 -0.19,-0.17l-0.21 -0.13c0.21,-1.59 -0.24,-1.13 0.38,-1.45 0.8,-0.41 1.1,-0.1 1.47,0.1 0.71,0.39 0.51,0.12 0.91,0.64l1.99 0.88c0.64,0.35 0.32,0.02 0.5,0.49l-2.47 1.13 -0.54 -0.29c0.03,0.8 0.12,0.79 -0.21,1.37 -0.01,0.02 -0.05,0.07 -0.07,0.11 0.46,0.05 3.42,-1.6 3.91,-2.01 0.52,-0.43 1.25,-4.11 1.12,-4.85l-2.67 -1.59 -0.04 0.37c0.06,0.03 1.1,0.65 1.31,0.83l-0 -0z"></path>
  <path class="fil48" d="M80.96 79.45l0.24 -0.09c1.34,0.34 2.65,0.6 4.04,0.62 0.02,0.03 0.03,0.05 0.04,0.11 0.01,0.07 0.05,0.17 0.06,0.2 0.03,0.14 -0,0.14 0.06,0.36 0.74,0.14 1.16,0.21 1.75,-0.11 0.22,-0.19 0.13,0.06 0.26,-0.37 0.27,-0.89 0.1,0.37 0.07,-0.78 -0.75,0.34 -0.41,0.75 -1.1,0.82 -0.24,-0.45 -0.32,-0.16 -0.4,-0.56 -0.12,-0.62 -0.03,-0.45 0.57,-0.62 -0.74,0.11 -0.29,0.13 -0.92,-0.38 -0.04,-0.03 -0.09,-0.04 -0.11,-0.12 -0.03,-0.08 -0.06,-0.1 -0.11,-0.13l0.27 0.5c0.18,0.58 0,0.48 -0.11,1.18 0.04,-0.31 -0.41,-0.69 -0.38,-1.79 0.32,-0.12 0.42,-0.07 0.81,-0.25l-1.58 -1.09c-0.94,-0.19 -1.32,0.35 -2.14,0.79 -1.45,0.78 -0.61,0.53 -1.32,1.71l-0 0z"></path>
  <path class="fil49" d="M58.94 47.44c0.14,0.34 1.04,4.61 0.76,5.25 -0.25,0.55 -0.2,0.34 -0.66,0.47 -0.25,-0.52 -0.47,-4.06 -0.38,-5.01 0.08,-0.79 0,-0.4 0.28,-0.7l-0 0zm-0.33 -1.25c0.43,0.46 0.49,0.38 0,0.8 -0.24,-0.31 -0.16,0.05 -0.21,-0.45 -0.05,-0.58 0.16,-0.3 0.21,-0.35l0 -0zm-1.19 -0.52l-0.14 0.23c0.68,2.09 1.13,4.37 1.23,6.69l0 0.34c0.1,0.02 0.41,0.28 0.62,0.45 0.37,0.3 0.42,0.29 0.74,0.53 0.49,0.38 0.96,0.54 1.57,0.35 0.35,-0.26 0.61,-0.38 1.01,-0.59 0.13,-0.07 0.48,-0.25 0.53,-0.29 0.44,-0.38 0.25,0.04 0.4,-0.59 -0.49,-0 -1.01,-0.45 -1.47,-0.71 0.07,0.54 0.18,0.28 -0.35,0.56 -0.44,0.24 -0.11,0.18 -0.67,-0.02 -0.18,0.61 -0.26,0.62 -0.9,0.82 -0.08,-1.13 -0.05,-2.24 -0.13,-3.36 -0.08,-1.03 -0.35,-2.11 -0.38,-3.06 -0.14,-0.19 -0.04,-0.01 -0.19,-0.33 -0.1,-0.2 -0.08,-0.18 -0.14,-0.35 -0.09,-0.25 -0.15,-0.46 -0.2,-0.79 -0.02,0.03 -0.05,0.08 -0.07,0.1 -0.02,0.02 -0.05,0.07 -0.07,0.09l-0.36 0.35c-0.55,-0.09 -0.64,-0.11 -1.02,-0.4l-0 -0z"></path>
  <path class="fil50" d="M94.84 70.71l-0.09 0.75c0.37,0.02 0.89,0.11 1.14,0.19l0.86 0.33c1.45,0 0.71,-0.13 0.98,0.53 1.23,-0.15 1.5,-0.11 2.4,0.33l-0.59 -0.86c0.68,0.15 0.53,0.16 1.15,0.03 0.06,0.14 -0.18,0.27 -0.16,0.18 0.53,-0.08 0.24,0.09 0.57,-0.47 -1.87,0.14 -0.69,-0.57 -1.52,-1.25 -0.54,-0.44 -1.32,-0.5 -1.85,-1.19 -0.97,0.1 -2.08,1 -2.89,1.43l-0 -0z"></path>
  <path class="fil51" d="M53.2 68.08l0.23 2c0.83,-0.12 0.95,-0.49 1.85,-0.36 0.73,0.11 0.94,0.53 1.53,0.64 0.58,0.3 1.29,-0.27 1.58,-0.64 -1.37,-0.76 -2.68,-1.6 -4.26,-2.46 -0.81,-0.2 -0.98,0.02 -0.93,0.82l0 0z"></path>
  <path class="fil45" d="M53.11 79.2l0.73 1c-0.73,0.42 -0.32,-0.26 -0.83,0 0.13,0.58 -0.12,0.2 0.48,0.41l0.48 0.11c0.03,-0.05 0.1,0.03 0.15,0.05 -0.65,0.02 -0.66,-0.03 -1.24,-0.13 -0.49,-0.09 -0.48,0.13 -0.96,0.1l0.27 0.24c0.85,0.18 3.3,0.69 4.21,0.59l0.56 -0.02c0.04,0.01 0.33,0.05 0.39,0.05 -0.39,-0.34 0.5,-0.21 -0.5,-0.3 0.23,0.01 0.68,0.02 0.78,-0.16 0.04,-0.08 0.1,-0.09 0.15,-0.13l-0.8 -0.04c-0.58,-1.34 0.24,-0.74 -1.22,-1.56 -0.75,-0.42 -1.05,-0.78 -1.92,-0.85l-0.67 0.55c-0.01,-0.02 -0.05,0.04 -0.07,0.07l0 0z"></path>
  <path class="fil52" d="M96.23 57.34l0.14 1 -0.17 3.36 1.64 0.07 0.5 -2.67c-2.3,-0.62 0.36,-2.46 -1.37,-3.17 -0.02,0.35 -0.29,-0.01 -0.86,0.27 -0.02,0.13 -0.06,0.54 -0.06,0.64 0.03,0.39 -0.02,0.14 0.16,0.5l0 0z"></path>
  <path class="fil53" d="M76.37 56.01l0.67 -0.21c0.61,-0.32 0.84,-0.64 1.63,-0.89l0.51 2.54 0.25 0.57c0.03,0.18 0.06,0.31 0.04,0.47 -0.06,0.54 0.08,0.2 -0.17,0.26 -0.17,0.21 -0.05,0.09 -0.28,0.28 -0.04,0.03 -0.16,0.12 -0.2,0.15 -0.13,0.09 -0.4,0.25 -0.51,0.32 -0.38,0.23 -0.61,0.34 -1.09,0.5 -0.13,0.12 -0.15,0.13 -0.28,0.25 -0.04,0.04 -0.11,0.34 -0.19,0.19 -0.02,-0.03 -0.07,0.07 -0.1,0.1 -0.2,0.09 -0.39,0.18 -0.54,0.26l-1.53 0.67 -0.33 -1.15 -0.16 -1.38 -0.27 -1.04c0,-0.03 0.04,-0.06 0.04,-0.12 0,-0.06 0.03,-0.08 0.05,-0.11l0.85 -0.54c0.38,-0.33 1.19,-0.61 1.61,-1.11l-0 -0zm5.21 6.22l0.13 0.25c0.75,-0.25 1.83,-0.82 2.25,-1.35 -0.34,-0.61 -3.36,-2 -4.19,-2.4l-0.91 -4.23c-0.62,0.13 -0.9,0.36 -1.4,0.65l-0.93 0.6c-0.02,0.02 -0.08,0.13 -0.09,0.1 -0.02,-0.03 -0.06,0.06 -0.09,0.1 -0.51,0.07 -2.47,1.26 -2.88,1.59 0,0.45 0.73,4.09 0.92,4.46 0.2,0.38 2.83,1.8 3.27,1.87l2.24 -1.45c0.12,0.13 0.15,0.3 0.62,0.19 0.6,-0.14 0.45,-0.36 1.06,-0.37l0 0z"></path>
  <path class="fil54" d="M80.25 75.44l0.54 0.41c0.61,-0.19 0.61,-0.44 1.15,-0.23 0.26,0.1 0.88,0.51 1.11,0.67 -1.49,1.45 -3.18,0.8 -2.9,2.92l0.81 0.23c0.71,-1.18 -0.13,-0.93 1.32,-1.71 0.82,-0.44 1.2,-0.98 2.14,-0.79 -0.38,-0.48 -0.22,-0.37 -0.66,-0.55l0.78 -0.85c-0.38,-0.13 -0.02,0.03 -0.38,-0.2l-0.37 -0.29 -0.37 0.06c0.03,0.69 0.05,0.18 -0.15,0.32 -0.59,-0.39 -1.92,-1.22 -2.62,-1.27l-0.4 1.28 -0 -0z"></path>
  <path class="fil38" d="M94.83 54.87l-2.03 0.69c-0.74,0.04 -1.25,-0.09 -1.76,0.29l0.11 0.76 0.86 0.13c1.66,0.03 3.4,-0.36 3.82,-0.11l0.4 0.72c-0.19,-0.36 -0.13,-0.11 -0.16,-0.5 -0.01,-0.1 0.04,-0.51 0.06,-0.64 0.57,-0.28 0.84,0.08 0.86,-0.27 -0.1,-0.52 -0.29,-0.88 -0.38,-1.64 -0.64,0.1 -1.31,0.33 -1.77,0.58l-0 0z"></path>
  <path class="fil50" d="M101.14 71.57c0.05,-0.02 0.11,-0.14 0.12,-0.11 0.02,0.03 0.09,-0.08 0.11,-0.1 0.61,-0.72 -0.38,-0.06 0.39,-0.39 0.79,-0.34 0.59,-0.86 1.41,-1.11 -0.52,-1.13 -0.79,-1.71 -1.64,-1.4 -0.05,0.02 -0.23,0.13 -0.27,0.16 0.2,-0.78 0.4,-0.19 -0.12,-0.69 -1.32,0.56 -0.2,-0.9 -2.86,0.87 2.43,1.38 2.87,1.32 2.86,2.77l0 0z"></path>
  <path class="fil48" d="M86.3 77.14l0.61 0.41c0.4,0.25 0.82,0.64 0.76,1.18 -0.06,0.52 -0.09,0.37 -0.42,0.45l-0.51 0.21c-0.32,-0.44 -0.05,-0.08 -0.22,-0.52l-0.07 -0.66 -0.44 -0.16c-0.39,0.18 -0.49,0.13 -0.81,0.25 -0.03,1.1 0.42,1.48 0.38,1.79 0.11,-0.7 0.29,-0.6 0.11,-1.18l-0.27 -0.5c0.05,0.03 0.09,0.05 0.11,0.13 0.03,0.08 0.08,0.09 0.11,0.12 0.63,0.51 0.18,0.48 0.92,0.38 -0.59,0.17 -0.69,0.01 -0.57,0.62 0.08,0.4 0.16,0.11 0.4,0.56 0.69,-0.07 0.34,-0.49 1.1,-0.82 0.03,1.15 0.2,-0.11 -0.07,0.78 -0.13,0.43 -0.04,0.19 -0.26,0.37 0.05,-0.07 0.21,-0.32 0.23,-0.34 0.29,-0.32 0.06,-0.43 0.26,-0.14 0.18,-0.3 0.03,0.03 0.1,-0.43 0.08,-0.49 -0.02,-0.33 0.69,-1.31 0.17,-0.23 0.01,0.04 0.19,-0.29l0.11 -0.25 -0.83 -1.1c-0.07,-0.79 -0.44,-0.54 -0.29,-1.11l-0.87 -0.05c-0.23,0.8 0.13,1.43 -0.46,1.62l0 -0z"></path>
  <path class="fil55" d="M89.58 44.24c-0.39,-0.45 -1.04,-0.74 -1.54,-1.02 -0.5,-0.28 -1.04,-0.65 -1.59,-0.79 0.07,0.83 0.46,3.97 1.05,4.45 0.22,0.18 0.93,0.53 1.22,0.65l1.03 0.57c-0.34,0.46 -0.67,0.58 -1.15,0.84l-0.03 0.13c0.93,-0.18 0.18,-0.38 1.31,-0.33 0,-0.74 -0.14,-0.17 0.29,-0.39 0.29,0.35 1.11,0.7 1.6,1 1.3,0.79 0.92,0.83 3.61,-0.76 0.86,-0.51 1.47,-0.66 1.76,-1.26 -0.26,-0.27 -0.14,-0.15 -0.49,-0.41 -0.19,-0.13 -0.27,-0.16 -0.44,-0.3l-0.46 0.05c-0.21,0.51 -0.21,0.37 -0.63,0.8 -0.01,0.01 -0.05,0.09 -0.05,0.07 -0.01,-0.02 -0.03,0.04 -0.05,0.06 -0.1,0.57 -0.01,0.36 -0.56,0.6 -2.04,0.86 0.04,0.61 -1.99,0.74 0,-1.28 0.17,-1.45 0,-2.52 0.06,0.02 0.13,0.04 0.19,0.06l1.12 0.43 0.3 0.77 -0.05 -0.58c0.4,-0.23 0.71,-0.65 0.92,-1.12l-1.83 -1.05 -0.59 0.09 -0.23 0.69c-0.4,-0.12 -0.58,-0.24 -0.9,-0.56 0.08,-0.42 0.34,-0.32 0.72,-0.34l0.08 -0.5c-0.94,-0.32 -0.47,-0.44 -1.45,0 -0.86,0.38 -0.4,0.03 -1.19,-0.07l-0 0z"></path>
  <path class="fil54" d="M54.7 77.13c-0.69,-0.17 -0.35,-0.17 -1.05,0.02l-0.3 0.04 0.83 0.35c0.42,0.23 0.52,0.7 0.55,0.66 0.02,-0.03 0.06,0.12 0.09,0.18 -0.79,-0.29 -0.58,-0.14 -0.98,0.19 0.87,0.07 1.17,0.43 1.92,0.85 1.47,0.82 0.64,0.22 1.22,1.56l0.8 0.04 -0.03 0.05c0.64,-1.05 0.06,-1.4 -0.79,-1.87 -0.47,-0.26 -1.48,-0.82 -1.85,-1.15 1.18,-1.38 1.68,-0.31 2.5,-0.64l0.15 -0.93 -0.17 -0.5c-0.91,-0.27 -1.9,0.91 -2.9,1.14l0 0z"></path>
  <path class="fil56" d="M93.74 67.97c0.17,0.1 0.31,0.15 0.54,0.32 0.75,-0.22 0.56,-0.45 1.12,-0.22 0.3,0.13 0.87,0.52 1.12,0.68 -1.53,1.23 -2.8,1.07 -2.99,2.46 0.32,-0.04 0.49,-0.01 0.8,-0.14 0.44,-0.18 0.03,0.04 0.51,-0.37 0.81,-0.43 1.92,-1.33 2.89,-1.43 0.85,-0.22 -0.11,-0.58 -0.35,-1.58l-0.5 -0.16c0.06,0.69 0.05,0.18 -0.13,0.35 -0.69,-0.33 -1.9,-1.17 -2.6,-1.28 -0.32,0.45 -0.32,0.72 -0.41,1.36l0 0z"></path>
  <path class="fil57" d="M101.14 67.93c0.52,0.5 0.33,-0.08 0.12,0.69 0.04,-0.04 0.22,-0.15 0.27,-0.16 0.84,-0.31 1.11,0.28 1.64,1.4 -0.82,0.25 -0.62,0.77 -1.41,1.11 -0.76,0.33 0.22,-0.34 -0.39,0.39 -0.02,0.02 -0.09,0.14 -0.11,0.1 -0.02,-0.03 -0.07,0.08 -0.12,0.11l-0.04 0.16c0.42,0.44 0.52,0.04 0.29,0.52l0.63 -0.73c0.35,-0.23 0.85,-0.18 1.27,-0.38 0.74,-0.35 -0.17,-0.14 0.95,-0.7 1.58,-0.79 0.23,-1.56 -0.52,-2.29 -0.46,-0.45 -1.51,-0.76 -2.08,-0.47 -0.32,-0.89 -0,-0.29 -0.44,-0.62l-0.07 0.87 -0 -0z"></path>
  <path class="fil54" d="M98.13 67.89l-0.75 -0.19c0.24,1 1.2,1.36 0.35,1.58 0.52,0.69 1.31,0.75 1.85,1.19 0.83,0.68 -0.35,1.4 1.52,1.25l0.04 -0.16c0.01,-1.45 -0.43,-1.39 -2.86,-2.77 2.66,-1.77 1.54,-0.31 2.86,-0.87l0.07 -0.87 -0.18 -0.58c-0.88,0.1 -2.25,0.94 -2.89,1.41z"></path>
  <path class="fil57" d="M80.15 79.22c-0.28,-2.12 1.41,-1.47 2.9,-2.92 -0.23,-0.17 -0.85,-0.57 -1.11,-0.67 -0.54,-0.21 -0.54,0.05 -1.15,0.23l-0.54 -0.41 -0.43 0.44c-0.01,0.01 -0.05,0.04 -0.07,0.05 -0.02,0.01 -0.06,0.04 -0.08,0.06 -2.03,1.61 -0.22,2.32 0.06,2.62l0.41 0.61 -0 0z"></path>
  <path class="fil26" d="M90.59 66.45l-0.08 2.52c0.31,-0.07 0.29,-0.12 0.6,-0.09 1.19,0.13 0.26,0.02 0.69,0.31l-0.08 -0.12c0.24,-0.51 -0.14,-0.22 0.19,-0.05l0.01 0.98c0.36,-0.49 0.09,-1.27 0.29,-2.53 0.13,-0.84 0.28,-1.67 0.26,-2.52 -0.05,0.01 -0.18,0.08 -0.21,0.09 -0.7,0.16 0.31,0.22 -0.38,-0.06 -0.26,-0.11 -0.06,-0.69 -0.45,0.22 -0.26,-0.76 0.01,-0.38 -0.56,-0.14 -0.13,-0.88 0.16,-0.31 -0.38,-0.46l0.1 1.85 -0 -0z"></path>
  <path class="fil53" d="M93.98 59.97l0.03 0.01 0.25 0.66c-0.38,0.17 -0.04,-0.03 -0.26,0.36l1.13 0.71 0.28 -0.08c0.43,-0.05 0.1,0.27 0.39,-0.24 0.02,-0.03 0.08,-0.18 0.11,-0.23 0,1.22 -0.05,0.14 0.28,0.54l0.17 -3.36c-0.71,-0.05 -1.34,-0.47 -1.83,0.07 -0.42,0.47 -0.03,1.06 -0.56,1.56l0 -0z"></path>
  <path class="fil43" d="M81.32 68.67c0.13,0.71 0.49,0.43 1.49,1.64 0.75,0.91 0.66,1.35 1.1,2.23 0.05,-0.75 0.12,-1.35 0.25,-2.12 0.16,-0.97 0.04,-0.88 0.39,-1.79 0.02,-0.04 0.04,-0.1 0.05,-0.14 0.01,-0.03 0.04,-0.09 0.06,-0.14 -0.66,-0.12 -1.06,-0.49 -1.87,-0.37 -0.56,0.09 -1.01,0.48 -1.47,0.68l0 0z"></path>
  <path class="fil50" d="M93.74 67.97c-0.2,0.75 -1.01,0.26 -1.21,1.49 -0.16,1.02 0.76,0.56 0.76,2.03 0,0.28 -0.05,0.16 0.33,0.16l-0.1 -0.44c0.19,-1.4 1.46,-1.24 2.99,-2.46 -0.25,-0.16 -0.81,-0.56 -1.12,-0.68 -0.56,-0.23 -0.37,-0 -1.12,0.22 -0.22,-0.17 -0.37,-0.22 -0.54,-0.32l0 0z"></path>
  <path class="fil55" d="M68.01 55.5c1.14,-0.11 1.38,-0.73 1.6,-1.93 0.18,-0.99 0.42,-2 0.52,-3 -0.96,0.28 -1.56,0.86 -2.43,1.28l-0.61 0.36c-0.58,0.33 -0.47,0.47 -1.24,0.37 0.03,0.06 0.06,0.25 0.07,0.2l-0.07 -0.02c-0,0.23 0.05,0.16 -0.21,0.16l-0.04 0.22 -0.57 0.31 -0.58 0.3c-0.08,0.62 -0.14,1.95 -0.54,2.29l-0.2 1.17 -1.01 -0.49c-0.43,-0.29 -0.59,-0.42 -0.84,-0.73 -0.68,0.18 -0.71,0.19 -1.26,-0.11 -0.04,-0.02 -0.39,-0.27 -0.49,-0.34 -0.27,-0.22 -0.18,-0.15 -0.37,-0.34 -0.28,0.21 -0.17,0.06 -0.31,0.36 0.34,0.51 2.49,1.61 3.13,1.99 0.63,0.38 0.95,0.72 1.78,0.28 0.5,-0.27 1.15,-0.59 1.48,-1.04 0.54,-0.06 0.52,-0.13 1.02,-0.42 0.36,-0.21 0.65,-0.38 0.92,-0.52 0.46,-0.24 0.12,-0.01 0.28,-0.35l0 -0z"></path>
  <path class="fil43" d="M53.43 70.08c0.36,0.73 0.43,1.49 0.58,2.47l0.11 2.4c0.42,-0.26 1.28,-3.1 1.68,-3.46 0.28,-0.26 0.38,-0.27 0.56,-0.42 0.58,-0.47 0.33,0.12 0.44,-0.71 -0.58,-0.1 -0.8,-0.53 -1.53,-0.64 -0.9,-0.13 -1.02,0.23 -1.85,0.36l0 0z"></path>
  <path class="fil58" d="M57.55 43.31c-0.62,-0.17 -0.36,-0.15 -0.95,-0.33l0.29 0.85c0.38,0.57 0.28,0.93 0.22,1.67l0.18 0.38 0.14 -0.23c0.62,0.07 0.37,-0.24 0.07,-0.75 0.51,0.05 0.27,-0.1 0.54,0.38l0.78 0.03c0.07,-0.35 0.4,-0.34 0.74,-0.5l0.2 -2.75c-0.71,0.2 -0.29,0.2 -1.02,0.36l-0.82 -0.07 -0.37 0.95 0 -0z"></path>
  <path class="fil53" d="M90.59 61.86l0 0.29c0.27,0.6 0.23,0.96 -0.09,1.51l-0.01 0.94c0.54,0.15 0.25,-0.42 0.38,0.46 0.57,-0.24 0.29,-0.62 0.56,0.14 0.39,-0.91 0.19,-0.32 0.45,-0.22 0.7,0.28 -0.31,0.22 0.38,0.06 0.03,-0.01 0.16,-0.07 0.21,-0.09 -0.19,-0.37 -0.61,-0.67 -0.88,-0.91 -0,-0.79 0.04,-0.79 0.37,-1.28 0.86,-0.09 0.46,-0.06 1.17,0.24 0.55,-0.52 0.5,-0.05 0.98,-0.8 0.12,-0.2 -0.32,-0.09 0.18,-0.18 -0.34,-0.47 -0.25,-0.4 -0.86,-0.49 -0.22,0.27 0.21,-0.01 -1.02,0.31l-0.65 0.12c-0.04,0.01 -0.08,0.02 -0.12,0.03 -0.74,0.16 -0.54,0.09 -1.04,-0.15l0 0z"></path>
  <path class="fil55" d="M90.12 50.27l0.46 2.4 -0.59 0.19c-0.06,0.09 -0,0.08 -0.29,0.26 -0.22,0.13 -0.09,0.04 -0.36,0.16l-0.92 0.46c-0.4,0.41 -0.55,0.31 -0.98,0.83 2.57,-1.04 3.2,-1.91 4.51,-0.94 0.4,0.3 0.75,0.5 1.11,0.78 -0.4,0.54 -0.51,0.5 -1.09,0.88l0.83 0.28 2.03 -0.69c-0.31,-0.62 -2.9,-1.72 -3.55,-2.08 -0.65,-0.36 -0.41,-0.01 -0.62,-0.87 -0.21,-0.88 -0.43,-2.53 -0.77,-3.19 -0,0.56 0.12,1.12 0.24,1.53l-0 0z"></path>
  <path class="fil59" d="M90.59 61.86c0.5,0.24 0.3,0.31 1.04,0.15 0.04,-0.01 0.08,-0.02 0.12,-0.03l0.65 -0.12c1.23,-0.32 0.8,-0.04 1.02,-0.31 -0.55,-0.8 -1.34,-0.5 -1.6,-1.39 0.61,-0.31 1.54,0.54 2.18,0.85 0.22,-0.38 -0.13,-0.19 0.26,-0.36l-0.25 -0.66 -0.88 -0.25 -1.96 -0.07c-0.26,0.55 -0.33,0.21 -0.51,0.84 -0.11,0.38 -0.06,0.93 -0.07,1.36l0 0z"></path>
  <path class="fil45" d="M50.4 77.3c0.26,0.67 0.2,0.12 -0.04,0.55l-1.09 1.05c0.7,0.21 0.48,0.31 0.98,0.68l0.36 0.22 0.2 -0.3 0.76 -0.35 1.66 -1.15 -1.2 -0.78 -0.49 -0.11c-0.34,0.33 -0.58,0.55 -1.15,0.19l-0 0z"></path>
  <path class="fil20" d="M93.42 61.54c0.61,0.09 0.52,0.02 0.86,0.49 0.92,0.13 1.98,1.52 2.29,2.6 0.09,0.26 0.11,0.55 0.17,0.74 0.33,0.99 -0.11,0.32 0.51,0.63l0.18 -0.31c0.01,-0.06 -0.01,-0.18 -0,-0.27l-0.2 -0.63c-0.29,-1.38 -1.26,-2.52 -2.08,-3.08l-1.13 -0.71c-0.65,-0.31 -1.58,-1.16 -2.18,-0.85 0.26,0.89 1.05,0.59 1.6,1.39l-0 0z"></path>
  <path class="fil60" d="M58.39 69.72c-0.29,0.37 -1,0.94 -1.58,0.64 -0.11,0.83 0.13,0.24 -0.44,0.71 -0.18,0.15 -0.28,0.16 -0.56,0.42 -0.4,0.37 -0.56,0.75 -0.98,1.01 0.18,0.33 -0.22,0.18 0.22,0.29 -0.48,-0.04 -0.24,0.07 -0.42,0.59 -0.14,0.41 -0.26,0.82 -0.44,1.13l-0.06 0.44c0.23,0.41 -0.3,0.35 0.38,0.31 0.39,-0.5 0.56,-1.85 1.12,-2.66 0.44,-0.64 1.33,-1.52 2.16,-1.51 0.23,-0.54 -0.11,-0.24 0.61,-0.65 0.46,-0.26 0.32,-0.24 0.85,-0.2 0.14,-0.39 0,-0.19 0.28,-0.47 0.26,-0.26 0.15,-0.2 0.52,-0.27l-0.53 -0.29c-0.23,0.18 -0.64,0.41 -1.12,0.52l-0 -0z"></path>
  <path class="fil60" d="M78.13 68.17c0.82,-0.05 0.72,0.05 1.32,0.41 0.1,0.06 0.49,0.27 0.52,0.3 0.3,0.27 0.27,0.05 0.18,0.46 1.15,-0.02 2.02,1.02 2.44,1.68 0.76,1.2 0.59,1.71 0.78,2.15 0.29,0.66 -0.01,0.27 0.39,0.36 0.35,-0.35 0.18,-0.01 0.14,-0.57l0 -0.42c-0.44,-0.88 -0.35,-1.32 -1.1,-2.23 -1,-1.21 -1.36,-0.93 -1.49,-1.64 -0.63,0.22 -0.57,0.06 -1.18,-0.28 -0.13,-0.07 -0.55,-0.3 -0.63,-0.35 -0.28,-0.23 -0.23,-0.12 -0.29,-0.45l-0.71 0.01c-0.25,0.5 -0.04,0.2 -0.37,0.57l-0 0z"></path>
  <path class="fil33" d="M61.45 54.23l-0.27 0.64c0.37,0.32 0.42,0.28 0.69,0.75 0.94,-0.2 1.37,-1.05 2.35,-1.28 -0.01,0.94 -0.23,0.97 -0.31,1.7 0.4,-0.34 0.46,-1.67 0.54,-2.29l0.58 -0.3 -0.52 0.18 -0.31 -0.31c-0.65,0 -0.39,0.2 -0.81,-0.57 -0.15,0.63 0.04,0.22 -0.4,0.59 -0.04,0.04 -0.39,0.22 -0.53,0.29 -0.4,0.21 -0.66,0.34 -1.01,0.59l0 0z"></path>
  <path class="fil54" d="M61.86 65.89l0 0.03 0.54 0.29 2.47 -1.13c-0.18,-0.48 0.14,-0.14 -0.5,-0.49l-1.99 -0.88c-0.4,-0.52 -0.2,-0.24 -0.91,-0.63 -0.37,-0.2 -0.67,-0.51 -1.47,-0.1 -0.62,0.32 -0.18,-0.14 -0.38,1.45l0.21 0.13c0.33,0.26 -0.07,-0.11 0.19,0.17 0.31,0.32 -0.08,-0.51 0.23,0.36 0.56,0.05 0.87,0.59 1.62,0.81l0 0z"></path>
  <path class="fil56" d="M84.7 75.38l-0.16 0.16 -0.78 0.85c0.44,0.18 0.28,0.08 0.66,0.55l1.58 1.09 0.44 0.16 0.07 0.66 0.37 -0.23 0.36 0.55c0.33,-0.08 0.36,0.07 0.42,-0.45 0.06,-0.53 -0.36,-0.93 -0.76,-1.18l-0.61 -0.41c-0.72,-0.16 -0.9,-0.44 -1.47,-0.8l0.47 -0.4c0.14,-0.45 0.32,-0.58 -0.05,-0.77l-0.55 0.21 0 0z"></path>
  <path class="fil61" d="M52.03 77.22l1.2 0.78 -1.66 1.15 -0.14 0.52 0.42 -0.03c0.62,-0.05 0.07,0.04 0.58,-0.18 0.41,-0.18 0.21,-0.13 0.67,-0.25 0.02,-0.02 0.06,-0.09 0.07,-0.07l0.67 -0.55c0.4,-0.33 0.19,-0.48 0.98,-0.19 -0.03,-0.06 -0.07,-0.21 -0.09,-0.18 -0.03,0.04 -0.13,-0.43 -0.55,-0.66l-0.83 -0.35 -1.28 -0.78c-0.17,0.13 -0.68,-0.04 -0.04,0.81l0 -0z"></path>
  <path class="fil62" d="M59.38 64.63c-0.48,-0.12 -0.97,-0.52 -1.33,-0.86 0.28,-0.5 0.28,-0.34 0.72,-0.67 0.62,-0.47 0.38,-0.12 0.54,-0.69 -0.7,0.24 -1.13,0.51 -1.71,0.83 -0.51,0.28 -1.21,0.53 -1.47,1.07l2.32 1.33 3.12 1.75c0.02,-0.04 0.06,-0.08 0.07,-0.11 0.33,-0.58 0.25,-0.57 0.21,-1.37l0 -0.03c-0.75,-0.22 -1.05,-0.76 -1.62,-0.81 -0.66,-0.62 0.05,-0.33 -0.86,-0.45l0 -0z"></path>
  <path class="fil6" d="M58.94 47.44c-0.28,0.3 -0.2,-0.09 -0.28,0.7 -0.1,0.96 0.13,4.5 0.38,5.01 0.46,-0.13 0.42,0.08 0.66,-0.47 0.29,-0.64 -0.62,-4.91 -0.76,-5.25l0 0z"></path>
  <path class="fil33" d="M77.66 63.86c0.16,0.21 0.05,0.26 0.49,0.44 0.5,0.21 0.91,-0.18 1.61,-0.6l1.95 -1.22 -0.13 -0.25c-0.62,0.02 -0.46,0.23 -1.06,0.37 -0.73,0.17 -0.38,-0.35 -1.03,-0.31 -0.68,0.04 -1.46,1.06 -1.83,1.57l-0 0z"></path>
  <path class="fil9" d="M93.12 63.01c0.23,0.12 0.5,0.25 0.82,0.42 0.03,0.01 0.42,0.24 0.43,0.25 0.44,0.31 0.12,0.03 0.37,0.34 0.71,0.05 0.94,0.44 1.83,0.62 -0.3,-1.08 -1.37,-2.47 -2.29,-2.6 -0.49,0.08 -0.05,-0.02 -0.18,0.18 -0.47,0.75 -0.43,0.29 -0.98,0.8l-0 -0z"></path>
  <path class="fil63" d="M56.98 54.61l0.65 0.24c1.18,-0.74 0.62,-0.23 1.71,-0.03 0.07,-0.11 0.23,-0.33 0.28,-0.41 0.2,-0.31 0.16,-0.12 0.26,-0.51 -0.32,-0.23 -0.37,-0.22 -0.74,-0.53 -0.21,-0.17 -0.51,-0.42 -0.62,-0.45l-0 -0.34c-0.11,-2.31 -0.56,-4.6 -1.23,-6.69l-0.18 -0.38 -0.4 0.01c-0.77,0.33 -1.64,0.68 -1.91,1.58 -0.2,0.36 0.02,1.98 0.16,2.44l0.21 0.47c0.01,-0.02 0.04,0.07 0.07,0.11 -0.06,1.04 0.51,1.7 0.37,3.3l0.02 0.5 1.36 0.7 -0 0z"></path>
  <path class="fil26" d="M95.14 61.71c0.82,0.55 1.79,1.7 2.08,3.08 0.42,-0.52 0.41,-1.92 0.62,-3.01l-1.64 -0.07c-0.33,-0.4 -0.28,0.68 -0.28,-0.54 -0.03,0.04 -0.09,0.2 -0.11,0.23 -0.3,0.51 0.03,0.19 -0.39,0.24l-0.28 0.08 -0 0z"></path>
  <path class="fil35" d="M61.87 55.62l-0.02 0.37c0.26,0.31 0.42,0.45 0.84,0.73l1.01 0.49 0.2 -1.17c0.08,-0.73 0.3,-0.76 0.31,-1.7 -0.98,0.23 -1.4,1.08 -2.35,1.28l-0 0z"></path>
  <path class="fil64" d="M95.02 47.6l-0.93 0.08 -0.3 -0.77 -1.12 -0.43c-0.06,-0.02 -0.12,-0.04 -0.19,-0.06 0.17,1.07 -0,1.24 -0,2.52 2.02,-0.13 -0.06,0.12 1.99,-0.74 0.55,-0.23 0.46,-0.02 0.56,-0.6l0 0z"></path>
  <path class="fil65" d="M96.95 38.45c0.53,0.19 -0.49,-0.44 0.18,0.14 0.22,0.19 0.09,0.13 0.26,0.24 0.37,0.23 -0.02,0.21 0.65,0.17 -0.27,-0.87 -0.2,-1.97 -0.24,-3.13l-1.22 0.12c-0.5,2.31 0.64,1.82 0.37,2.47l0 0z"></path>
  <path class="fil44" d="M55.14 76.17c0.49,-0.06 0.81,-0.32 1.29,-0.61 0.53,-0.31 0.87,-0.49 1.36,-0.79 0.82,-0.48 2.26,-0.88 2.16,-2.04 -0.47,0.33 -0.67,0.54 -1.23,0.85 -1.36,0.77 -3.27,1.58 -3.95,2.56l0.36 0.02 0 -0z"></path>
  <path class="fil44" d="M83.13 74.53l-0.02 -0.56c-1.5,-0.99 -3.39,-1.68 -4.67,-2.77 -0.2,-0.17 -0.1,-0.1 -0.33,-0.26 -0,1.25 2.41,2.22 4.24,3.29 0.57,0.33 0.22,0.25 0.78,0.3l0 -0z"></path>
  <path class="fil33" d="M89.26 56.81l-0.13 0.36c-0,-0.02 0.03,0.06 0.04,0.09 -0.09,0.02 -0.43,-0 -0.44,0.01 -0.3,0.22 0.16,-0.32 -0.09,0.16 -0.01,0.01 -0.03,0.11 -0.04,0.09 -0,-0.02 -0.02,0.07 -0.04,0.09 0.64,0.83 1.06,0.66 1.86,0.16 0.59,-0.37 1.19,-0.68 1.59,-1.03l-0.86 -0.13 -1.56 -0.09 -0.32 0.3 -0 -0z"></path>
  <path class="fil58" d="M59.34 54.81l0.38 0.38c0.19,0.2 0.11,0.13 0.37,0.34 0.09,0.07 0.44,0.32 0.49,0.34 0.55,0.3 0.59,0.29 1.26,0.11l0.02 -0.37c-0.26,-0.46 -0.32,-0.43 -0.69,-0.75l0.27 -0.64c-0.6,0.19 -1.08,0.04 -1.57,-0.35 -0.09,0.39 -0.06,0.2 -0.26,0.51 -0.05,0.09 -0.21,0.3 -0.28,0.41l0 0z"></path>
  <path class="fil20" d="M55.56 54.63c0.53,0.15 0.83,0.31 1.18,0.72 0.25,-0.18 0.53,-0.29 0.89,-0.5l-0.65 -0.24 -1.36 -0.7c-0.95,-0.37 -1.93,0.02 -2.4,0.85 -0.36,0.64 -0.08,0.78 -0.03,0.87 0.52,-0.24 0.13,0.07 0.55,-0.52 0.8,-1.14 1.72,-0.72 1.82,-0.47l0 -0z"></path>
  <path class="fil43" d="M65.81 48.35c0,0.01 0,0.01 0,0.02 -0,-0.01 -0,-0.01 -0,-0.02zm0 0.03c0,0 0,0.01 0,0.01 -0,-0 -0,-0.01 -0,-0.01zm0.01 0.04c0,0 0,0 0.01,0 -0,-0 -0,-0 -0.01,-0zm0.01 0c0,0 0,0 0.01,0 -0,-0 -0,-0 -0.01,-0zm0.06 0.01c0,0 0.01,0 0.02,0 -0.01,-0 -0.01,-0 -0.02,-0zm0.03 0.01c0,0 0.01,0 0.01,0.01 -0,-0 -0.01,-0 -0.01,-0.01zm0.1 0.07c0.27,-0.12 0.41,-0.27 0.52,-0.42 -0.1,0.16 -0.25,0.31 -0.52,0.42zm0.52 -0.42c0.01,-0.02 0.03,-0.04 0.04,-0.06 -0.01,0.02 -0.03,0.04 -0.04,0.06zm0.04 -0.06c0.01,-0.01 0.02,-0.03 0.03,-0.04 -0.01,0.01 -0.02,0.03 -0.03,0.04zm0.03 -0.04c0.02,-0.04 0.04,-0.07 0.06,-0.11 -0.02,0.03 -0.04,0.07 -0.06,0.11zm0.06 -0.11c0.01,-0.02 0.02,-0.04 0.04,-0.06 -0.01,0.02 -0.02,0.04 -0.04,0.06zm0.04 -0.06c0.01,-0.01 0.02,-0.03 0.03,-0.04 -0.01,0.01 -0.02,0.03 -0.03,0.04zm0.04 -0.06c0.02,-0.03 0.05,-0.07 0.07,-0.1 -0.03,0.03 -0.05,0.06 -0.07,0.1zm1.94 -0.16c0.03,0.02 0.06,0.03 0.09,0.04 -0.03,-0.01 -0.06,-0.03 -0.09,-0.04zm0.09 0.04c0.04,0.02 0.07,0.03 0.09,0.05 -0.03,-0.02 -0.06,-0.03 -0.09,-0.05zm0.11 0.06c0.01,0.01 0.02,0.01 0.03,0.02 -0.01,-0.01 -0.02,-0.01 -0.03,-0.02zm0.03 0.02c0.04,0.02 0.07,0.04 0.09,0.07 -0.02,-0.02 -0.05,-0.04 -0.09,-0.07zm0.09 0.07c0.11,0.1 0.08,0.22 0.14,0.54l0.95 -0.73 -0.8 -0.42c-0.95,0.08 -0.26,0.09 -0.53,-0.18l-1.26 -0.45c-0.36,0.52 -0.27,-0.17 -1.04,0.58 -0.2,0.19 -0.19,0.25 -0.36,0.46 -0.16,0.2 -0.09,0.16 -0.25,0.24 -0.2,0.39 -0.11,0.3 -0.5,0.49 -0.57,0.04 -0.11,-0.1 -0.53,0.48l0.54 1.01c1.38,0.06 1.14,-0.06 2.14,-0.66 0.44,-0.27 1.04,-0.78 1.64,-0.83 -0.06,-0.32 -0.03,-0.43 -0.14,-0.54l0 0z"></path>
  <path class="fil15" d="M89.84 69.46c-0.18,0.46 -0.15,0.32 -0.15,0.95l0.93 0.05c0.62,-0.21 0.41,-0.23 0.87,-0.6l0.29 0.63c0.33,-0.31 0.18,-0.01 0.15,-0.48l-0.01 -0.98c-0.33,-0.17 0.06,-0.46 -0.19,0.05l0.08 0.12c-0.43,-0.3 0.5,-0.18 -0.69,-0.31 -0.31,-0.03 -0.3,0.02 -0.6,0.09l-0.68 0.49 -0 0z"></path>
  <path class="fil59" d="M60.34 61.91c0.33,0.61 -0.24,0.12 0.61,0.53 0.36,0.17 0.56,0.23 0.89,0.28 -0.15,-0.24 -0.03,-0.22 -0.41,-0.45 -0.23,-0.14 -0.5,-0.19 -0.76,-0.27 -0.08,-0.79 0.14,-1.55 0.4,-2.35l0.5 -1.63c0.36,0.15 0.49,0.26 0.84,0.48 0.25,0.16 0.53,0.34 0.76,0.39l0.72 0.42 0.04 -0.37 -2.52 -1.32c-0.57,0.84 -0.88,3.11 -1.06,4.3l0 0z"></path>
  <path class="fil60" d="M97.95 46.42c0.31,0.38 0.52,0.4 0.97,0.64 0.12,-0.4 -0.12,-0.22 0.38,-0.31l0.5 -0.2c1.49,0.11 0.93,1.06 1.79,1.21 0.32,-1.07 -0.8,-1.73 -1.8,-1.82 -0.56,0.09 -0.61,0.07 -1.04,0.27 -0.7,0.34 0.04,0.31 -0.81,0.21l0 -0z"></path>
  <path class="fil47" d="M56.6 42.98c0.59,0.18 0.33,0.16 0.95,0.33l0.37 -0.95 0.82 0.07c0.73,-0.16 0.31,-0.16 1.02,-0.36 0.74,-0.69 -0.3,-1.28 -0.76,-1.48 -0.46,-0.28 -1.21,-0.36 -1.73,0.02 -0.85,0.24 -1.05,1.37 -0.66,2.38l-0 0z"></path>
  <path class="fil66" d="M89.59 56.51l1.56 0.09 -0.11 -0.76 -0.73 -0c-0.45,-0.51 -1.11,-0.52 -1.93,-0.43l-0.07 0.51 1.28 0.59z"></path>
  <path class="fil67" d="M51.86 79.64l-0.34 1.3 0.41 -0.19c0.48,0.03 0.48,-0.18 0.96,-0.1 0.57,0.1 0.59,0.15 1.24,0.13 -0.05,-0.02 -0.12,-0.1 -0.15,-0.05l-0.48 -0.11c-0.61,-0.21 -0.35,0.16 -0.48,-0.41 0.51,-0.26 0.09,0.42 0.83,0l-0.73 -1c-0.46,0.12 -0.27,0.07 -0.67,0.25 -0.5,0.22 0.05,0.14 -0.58,0.18l-0 0z"></path>
  <path class="fil61" d="M50.4 77.3c0.57,0.36 0.81,0.14 1.15,-0.19l0.49 0.11c-0.64,-0.84 -0.13,-0.68 0.04,-0.81 -0.09,-0.07 -0.14,-0.12 -0.3,-0.22 -0.44,-0.27 -0.7,-0.4 -1.23,-0.39 -0.23,0.49 -0.22,0.92 -0.15,1.5l0 0z"></path>
  <path class="fil48" d="M85.3 75.94l-0.47 0.4c0.57,0.36 0.75,0.64 1.47,0.8 0.58,-0.18 0.22,-0.82 0.46,-1.62l-0.1 -0.12c-0.5,-0.01 -0.88,0.3 -1.35,0.54l0 0z"></path>
  <path class="fil43" d="M48.02 72.77l0.08 0.91 0.58 0.36c0.23,0.12 0.33,0.15 0.61,0.25l-0.27 -0.37c0.48,-0.18 0.47,-0.13 0.81,-0.63 -0.48,-0.61 -0.55,-0.57 -1.45,-0.86l-0.36 0.34 0 0zm2.36 2.13c0.69,0.65 3.01,1.67 3.27,2.25 0.7,-0.19 0.36,-0.19 1.05,-0.02 0.02,-0.37 -0.05,-0.16 0.08,-0.47 0.04,-0.09 0.16,-0.26 0.21,-0.32 -0.58,-0.19 -0.88,-0.49 -1.21,-0.84 -0.33,-0.43 -0.3,-0.52 -0.73,-0.89 0.21,-0.42 0.11,-0.2 0.19,-0.58 0.11,-0.72 0.08,-0.45 -0.06,-1.21 -1.02,0.42 -0.48,0.68 -1.4,1.05l-0.07 -3.39 -1.21 -0c0.11,0.76 0.07,1.55 0.07,2.33 0,0.66 0.14,1.68 -0.19,2.1l-0 0zm-2.3 -5.46l0.28 1.42c0.04,0.59 0.08,0.98 0.02,1.57 0.9,0.29 0.97,0.25 1.45,0.86 -0.34,0.49 -0.33,0.44 -0.81,0.63l0.27 0.37 1.09 0.61c0.33,-0.42 0.19,-1.44 0.19,-2.1 0,-0.77 0.05,-1.57 -0.07,-2.33 0.33,-0.39 -0.84,-0.3 1.21,-0.3l-1.21 -0.03c0.04,-0.02 0.11,-0.11 0.12,-0.07 0.01,0.05 0.11,-0.07 0.17,-0.11 0.08,-0.05 0.33,-0.03 0.02,-0.02l-0.01 -2.07c0.09,-0.75 -0.09,-0.28 0.24,-0.65 -0.03,-0.01 -0.08,-0.03 -0.09,0 -0.01,0.03 -0.08,0 -0.09,-0.01 -0.45,-0.18 -0.35,0.31 -0.41,-0.7l0.92 0.32c-0.37,-0.63 -2.98,-2.06 -3.55,-2.13 0.3,-0.52 0.28,-0.02 0.05,-0.35 -0.31,-0.46 -0.24,0.51 -0.23,-0.31 -0.31,0.29 -0.1,-0.04 -0.23,0.41l0.09 1.03c0.23,0.98 0.72,3.17 0.55,3.96l0 -0zm2.43 1.04l1.21 0 0.07 3.39c0.92,-0.37 0.37,-0.62 1.4,-1.05l-0.03 -0.18c-0.36,-1.53 -0.55,-5.35 -1.77,-5.82l-0.92 -0.32c0.06,1.01 -0.04,0.52 0.41,0.7 0.01,0.01 0.08,0.03 0.09,0.01 0.01,-0.03 0.06,-0.01 0.09,-0 -0.33,0.37 -0.15,-0.1 -0.24,0.65l0.01 2.07c0.3,-0.01 0.06,-0.03 -0.02,0.02 -0.06,0.04 -0.16,0.16 -0.17,0.11 -0.01,-0.04 -0.08,0.05 -0.12,0.07l1.21 0.03c-2.05,0 -0.87,-0.08 -1.21,0.3l0 0z"></path>
  <path class="fil44" d="M53.15 72.65l0.03 0.18c0.14,0.76 0.17,0.5 0.06,1.21l1.04 -0.55 -0.09 1.02 -0.18 -1.96 -0.86 0.1 0 -0zm-5.49 -8.61c-0.02,0.82 -0.08,-0.15 0.23,0.31 0.22,0.33 0.25,-0.17 -0.05,0.35 0.57,0.07 3.18,1.5 3.55,2.13 1.22,0.47 1.41,4.29 1.77,5.82l0.86 -0.1c-0.15,-0.98 -0.22,-1.74 -0.58,-2.47l-0.23 -2c-0.35,-0.53 -0.1,-0.26 -0.28,-0.79 -0.09,-0.28 -0.19,-0.38 -0.35,-0.7 -0.29,-0.69 -1.03,-0.97 -1.78,-1.4l-2.13 -1.24c-0.21,-0.12 -0.98,-0.45 -1.01,0.09l-0 0z"></path>
  <path class="fil60" d="M52.57 66.59c0.16,0.32 0.26,0.43 0.35,0.7 0.18,0.53 -0.07,0.26 0.28,0.79 -0.05,-0.81 0.11,-1.02 0.93,-0.82 0.1,-0.44 0.11,-0.24 0.22,-0.51 0.12,-0.27 0.1,-0.05 0.17,-0.5l-0.3 -0.26 -0.64 0.51c-0.23,0.06 -0.29,0.23 -0.55,-0.27 -0.6,0 -0.51,-0.18 -0.45,0.35l0 -0z"></path>
  <path class="fil65" d="M94.09 47.68l0.93 -0.08c0.02,-0.02 0.04,-0.09 0.05,-0.06 0.01,0.02 0.04,-0.06 0.05,-0.07 0.42,-0.43 0.42,-0.29 0.63,-0.8 -0.61,-0.23 -0.33,-0.13 -0.61,-0.67l-0.17 -0.03c-0.2,0.47 -0.51,0.89 -0.92,1.12l0.05 0.58 -0 -0z"></path>
  <path class="fil44" d="M53.24 74.04c-0.08,0.38 0.02,0.15 -0.19,0.58 0.42,0.36 0.4,0.46 0.73,0.89 0.03,-0.04 0.07,-0.15 0.09,-0.12 0.02,0.02 0.06,-0.1 0.09,-0.13l0.18 -0.3 0.06 -0.44 0.09 -1.02c-0.76,0.19 -0.45,0.23 -1.04,0.55z"></path>
  <path class="fil61" d="M86.73 74.27l-0.08 1.13 0.1 0.12 0.87 0.05c0.05,-0.24 0.13,-0.65 0.07,-1.12 -0.2,-0.33 -0.12,-0.28 -0.49,-0.45l-0.47 0.27 0 0z"></path>
  <path class="fil68" d="M79.3 58.75c0.24,-0.07 0.11,0.27 0.17,-0.26 0.02,-0.16 -0.01,-0.29 -0.04,-0.47l-0.25 -0.57 -0.51 -2.54c-0.79,0.25 -1.02,0.58 -1.63,0.89l-0.67 0.21c-0.41,0.5 -1.22,0.78 -1.61,1.11l-0.85 0.54c-0.02,0.04 -0.05,0.05 -0.05,0.11 -0,0.06 -0.04,0.09 -0.04,0.12l0.27 1.04 0.16 1.38 0.33 1.15 1.53 -0.67c0.16,-0.08 0.34,-0.17 0.54,-0.26 0.03,-0.03 0.08,-0.13 0.1,-0.1 0.08,0.15 0.15,-0.15 0.19,-0.19 0.13,-0.12 0.15,-0.13 0.28,-0.25 0.47,-0.17 0.7,-0.27 1.08,-0.5 0.12,-0.07 0.38,-0.22 0.51,-0.32 0.04,-0.03 0.16,-0.11 0.2,-0.15 0.23,-0.19 0.11,-0.07 0.28,-0.28l0 0z"></path>
  <path class="fil64" d="M55.47 56.05l1.27 -0.7c-0.35,-0.41 -0.65,-0.57 -1.18,-0.72l-0.12 0.09 -0.29 1.08c0.18,0.34 -0.28,0.33 0.32,0.25l-0 -0z"></path>
  <path class="fil58" d="M64.19 53.32l0.31 0.31 0.52 -0.18 0.57 -0.31 0.04 -0.22c-0.2,-0.35 -0.82,-0.67 -1.48,-0.33l0.03 0.73 -0 -0z"></path>
  <path class="fil56" d="M85.25 75.17c0.37,0.19 0.19,0.32 0.05,0.77 0.47,-0.25 0.85,-0.56 1.35,-0.54l0.08 -1.13c-0.33,0.14 -0.41,0.22 -0.77,0.41 -0.21,0.11 -0.24,0.09 -0.43,0.22 -0.29,0.19 -0.07,0.03 -0.28,0.27l-0 0z"></path>
  <path class="fil69" d="M83.56 65.1c0.71,0.11 0.76,0.35 1.42,0.59l-0.13 0.66c0.32,-0.35 0.11,0.01 0.27,-0.59 0.12,-0.44 -0.01,-0.18 0.2,-0.68 -0.55,-0.05 -0.67,0.01 -0.92,-0.56l-0.68 0.06c-0.08,0.34 -0.02,0.2 -0.15,0.51l0 -0z"></path>
  <path class="fil68" d="M85.28 54.07l0.3 1.16c0.87,-0.14 1.06,-0.65 1.85,-0.67 0.43,-0.52 0.58,-0.42 0.98,-0.83l0.92 -0.46c0.27,-0.12 0.14,-0.02 0.36,-0.16 0.29,-0.18 0.24,-0.17 0.29,-0.26l0.59 -0.19 -0.46 -2.4c-0.11,-0.41 -0.24,-0.97 -0.24,-1.53 -1.13,-0.05 -0.38,0.15 -1.31,0.33l-0.56 0.58c-0.36,0.08 -1.99,1.11 -2.17,1.29 -0.37,0.18 -0.19,0.07 -0.61,0.34 -0.21,0.13 -0.26,0.17 -0.43,0.32 0.16,0.89 0.34,1.51 0.48,2.47l0 -0z"></path>
  <path class="fil61" d="M50.81 79.5c0.64,0.44 0.13,0.34 0.33,1.14l0.18 0.44 0.2 -0.15 0.34 -1.3 -0.42 0.03 0.14 -0.52 -0.76 0.35z"></path>
  <path class="fil58" d="M57.43 45.66c0.38,0.3 0.47,0.31 1.02,0.4l0.36 -0.35c0.02,-0.02 0.06,-0.07 0.07,-0.09 0.02,-0.02 0.04,-0.07 0.07,-0.1l-0.14 -0.2 -0.78 -0.03c-0.26,-0.48 -0.03,-0.33 -0.54,-0.38 0.3,0.51 0.54,0.82 -0.07,0.75l0 0z"></path>
  <path class="fil61" d="M50.61 79.81c-0.15,0.76 -0.22,0.71 0.1,1.29l0.61 -0.01 -0.18 -0.44c-0.2,-0.81 0.31,-0.71 -0.33,-1.14l-0.2 0.3 0 -0z"></path>
  <path class="fil44" d="M89.01 72.4c0.48,-0.17 0.83,-0.22 1.04,-0.91l-0.18 -0.58c0.28,-0.33 -0.49,-0.08 -0.1,-0.3 0.1,-0.06 0.02,-0.44 -0.05,-0.84 0.02,-0.07 0.06,-0.16 0.12,-0.31 -0.08,-0.17 -0.12,-0.39 -0.13,-0.65l0 0c-0.02,-0.92 0.37,-2.25 0.44,-3.04l0 0 0.34 -1.18 0.01 -0.94c0.02,-1.33 -0.13,-1.25 -1.96,0.13 -0.02,0.02 -0.07,0.05 -0.1,0.08 -2.15,1.81 -2.11,-0.2 -3.04,4.61 -0.22,1.12 -0.4,2.11 -0.59,3.25 -0.38,2.27 -0.06,2.7 -0.21,3.22l0.84 -0.41c0.53,-0.29 1.26,-0.55 1.56,-1.03l0.61 -0.13 1.42 -0.98 0 -0z"></path>
  <path class="fil70" d="M64.04 63.87l1.51 0.62 0.27 -1.12 0.54 -2.56c-0.21,-0.11 -0.36,-0.22 -0.51,-0.31 -0.43,-0.27 -0.11,-0.12 -0.65,-0.36 -0.21,-0.18 -1.25,-0.81 -1.31,-0.83l-0.72 -0.42c-0.23,-0.05 -0.51,-0.23 -0.76,-0.39 -0.35,-0.22 -0.48,-0.33 -0.84,-0.48l-0.5 1.63c-0.26,0.8 -0.48,1.56 -0.4,2.35 0.27,0.08 0.53,0.12 0.76,0.27 0.38,0.23 0.26,0.21 0.41,0.45l1.1 0.41 1.09 0.74 -0 -0z"></path>
  <path class="fil71" d="M93.53 71.22l0.1 0.44 0.32 0.17c0.61,-0.06 0.38,0.07 0.79,-0.37l0.09 -0.75c-0.48,0.4 -0.07,0.19 -0.51,0.37 -0.31,0.12 -0.48,0.1 -0.8,0.14l-0 -0z"></path>
  <path class="fil65" d="M91.42 45.15c0.33,0.31 0.51,0.44 0.91,0.56l0.23 -0.69 -0.41 -0.21c-0.38,0.02 -0.65,-0.08 -0.72,0.34l-0 0z"></path>
  <path class="fil46" d="M93.13 59.73l0.88 0.25 -0.03 -0.01 0.17 -0.96c-0.28,0.09 -0.26,0.03 -0.59,0.24 -0.44,0.28 -0.25,0.19 -0.44,0.48l0 -0z"></path>
  <path class="fil72" d="M98.93 47.06l0.81 0.46 0.06 -0.97 -0.5 0.2c-0.5,0.09 -0.26,-0.09 -0.38,0.31l0 0z"></path>
  <path class="fil73" d="M86.51 78.86c0.17,0.44 -0.1,0.09 0.22,0.52l0.51 -0.21 -0.36 -0.55 -0.37 0.23z"></path>
  <path class="fil6" d="M58.61 46.98c0.49,-0.43 0.43,-0.34 0,-0.8 -0.05,0.05 -0.26,-0.24 -0.21,0.35 0.04,0.5 -0.03,0.14 0.21,0.45l0 0z"></path>
  <path class="fil20" d="M68.09 47.37c0.53,0.15 0.83,0.31 1.18,0.72 0.25,-0.18 0.53,-0.29 0.89,-0.5l-0.65 -0.24 -1.36 -0.7c-0.95,-0.37 -1.93,0.02 -2.4,0.85 -0.36,0.64 -0.08,0.78 -0.03,0.87 0.52,-0.24 0.14,0.07 0.55,-0.52 0.8,-1.14 1.72,-0.72 1.82,-0.47l0 -0z"></path>
  <polygon class="fil74" points="27.72,63.36 21.66,59.8 21.69,55.06 27.75,58.62 "></polygon>
  <path class="fil26" d="M23.36 56.08l-1.44 -0.63 0 4.39c0.58,0.39 1.8,0.86 2.21,1.43 0.52,0.07 0.94,0.41 1.61,0.8 0.52,0.3 1.01,0.68 1.64,0.84l-0.01 -4.41 -4.03 -2.43zm0.67 5.38c-0.59,-0.2 -2.15,-1.08 -2.54,-1.48l0 -5.37 0.57 -0.06 0.3 0.32c0.81,0.42 1.61,0.9 2.43,1.38 0.75,0.43 1.68,1.12 2.38,1.27 0.12,0.2 -0.19,0.11 0.41,0.24l0.45 0.47 -0.01 5.43c-0.72,-0.04 -1.63,-0.72 -2.18,-1.05 -0.42,-0.25 -1.58,-0.87 -1.81,-1.14z"></path>
  <path class="fil7" d="M40.13 52.15c0.01,0.25 -0,-0.06 -0,0.2l-0.03 25.25 0.01 0.33c-0.03,0.1 -0.02,2.81 -0.01,2.88 -0.07,-0.04 -0.02,0 -0.06,-0.05l0.06 0.11 -0.1 2.05c0.19,0.13 0.09,-0.07 0.1,0.17 0.04,0.09 0.19,0.23 0.27,0.28 0.02,-0.14 0.02,-1.19 0.02,-1.43 0,-0.47 -0,-0.95 -0,-1.43l0 -2.54c-0,-0.06 -0,-0.13 -0,-0.19l0.01 -0.12 -0.01 -0.8 0.01 -4.82 -0.01 -1.27c0,-0.47 -0,-0.94 0,-1.41l0.02 -1.35c-0.03,-0.3 0.01,-15.36 0.01,-15.85l-0.28 -0.01z"></path>
  <path class="fil75" d="M29.1 46.08l-0.12 30.69 1.03 0.59c0.06,-0.2 0.05,-1.89 0.06,-2.25 0.01,-0.71 -0,-1.43 -0,-2.14l0.01 -3.82c-0,-0.08 -0.01,-0.2 -0,-0.28l0.04 -0.19 -0.03 -1.19 -0.06 -13.44 -0.03 -1.91c0,-0.71 -0.05,-4.77 -0.03,-5.48l10.23 5.78 0 -0.29 -11.08 -6.07z"></path>
  <path class="fil7" d="M29.03 46.04l11.15 6.27 0.08 -0.13c-2.1,-1.23 -11.11,-6.28 -11.14,-6.3l-0.09 0.16z"></path>
  <path class="fil7" d="M28.86 45.87c0.01,0.25 -0,-0.06 -0,0.2l-0.03 25.25 0.01 0.33c-0.03,0.1 -0.02,2.81 -0.01,2.88 -0.07,-0.04 -0.02,0 -0.07,-0.05l0.06 0.11 -0.1 2.05c0.2,0.13 0.09,-0.07 0.1,0.17l0.29 0.03c0.02,-0.14 0.01,-0.95 0.01,-1.18 0,-0.47 -0,-0.95 -0,-1.43l0 -2.54c-0,-0.06 -0,-0.13 -0,-0.19l0.02 -0.12 -0.01 -0.79 0.01 -4.82 -0.01 -1.27c0,-0.47 -0,-0.94 0,-1.41l0.02 -1.35c-0.03,-0.3 0.01,-15.36 0.01,-15.85l-0.3 -0.01z"></path>
  <path class="fil26" d="M59.48 46.98c0.03,0.96 0.3,2.03 0.38,3.06 0.09,1.12 0.05,2.24 0.13,3.36 0.64,-0.2 0.72,-0.21 0.9,-0.82l-0.04 -1.05 1.06 0.51c0.46,0.25 0.98,0.7 1.47,0.71 0.42,0.77 0.16,0.57 0.81,0.57l-0.03 -0.73c0.66,-0.34 1.28,-0.02 1.48,0.33 0.27,0 0.21,0.07 0.21,-0.16l0.07 0.02c-0.01,0.05 -0.04,-0.13 -0.07,-0.2 -0.38,-0.53 -0.74,-0.27 -1.21,-0.44 -0.43,-0.15 -0.87,-0.58 -1.15,-0.83 -0.47,-0.32 -0.82,-0.67 -1.28,-0.76 -0.19,-0.51 -0.47,-1.36 -0.44,-2.03 -0.11,-0.15 -0.04,0.01 -0.19,-0.36 -0.02,-0.05 -0.1,-0.33 -0.11,-0.39 -0.11,-0.58 -0.09,-0.41 -0.01,-0.95 -0.32,-0.41 -0.31,-0.56 -0.36,-1.1l0.14 -0.3c-0.57,-0.02 -0.1,0.13 -0.62,-0.3 -0.47,-0.32 -0.44,-0.34 -1.06,-0.3 -0.34,0.15 -0.66,0.15 -0.74,0.5l0.14 0.2c0.05,0.33 0.1,0.54 0.2,0.79 0.06,0.17 0.05,0.15 0.14,0.35 0.16,0.32 0.05,0.14 0.19,0.33l-0 0z"></path>
 </g>
</svg>